<svg width="31" height="31" viewBox="0 0 31 31" fill="none" xmlns="http://www.w3.org/2000/svg">
<path d="M19.1167 18.0833H18.5483C18.3346 18.0837 18.1433 17.9503 18.0699 17.7495C18.0069 17.5842 17.9392 17.4225 17.8663 17.2623C17.7758 17.0675 17.8171 16.8369 17.9697 16.6857L18.3747 16.2801C18.9761 15.6735 18.975 14.6952 18.3722 14.09L16.9121 12.6299C16.3061 12.0274 15.3274 12.0274 14.7214 12.6299L14.3163 13.0344C14.1648 13.1864 13.9346 13.2276 13.7397 13.1377C13.5796 13.0649 13.4178 12.9972 13.252 12.9311C13.0502 12.8582 12.9159 12.6662 12.9167 12.4516V11.8833C12.9167 11.0272 12.2227 10.3333 11.3667 10.3333H9.3C8.44395 10.3333 7.75 11.0272 7.75 11.8833V12.4516C7.75039 12.6654 7.61702 12.8566 7.41623 12.93C7.2509 12.9931 7.08918 13.0608 6.92902 13.1336C6.73417 13.2237 6.50387 13.1824 6.35242 13.0303L5.94683 12.6252C5.34091 12.0232 4.3626 12.0232 3.75668 12.6252L2.29658 14.09C1.69415 14.6959 1.69415 15.6746 2.29658 16.2806L2.70113 16.6857C2.85368 16.8369 2.89501 17.0675 2.80447 17.2623C2.73162 17.4225 2.66393 17.5842 2.60038 17.75C2.52644 17.952 2.3334 18.0855 2.11833 18.0833H1.55C0.693948 18.0833 0 18.7772 0 19.6333V21.6999C0 22.556 0.693948 23.2499 1.55 23.2499H2.11833C2.3321 23.2495 2.52334 23.3829 2.59677 23.5837C2.6598 23.749 2.72748 23.9108 2.80033 24.0709C2.89088 24.2657 2.84955 24.4963 2.697 24.6475L2.29193 25.0531C1.68989 25.659 1.68989 26.6373 2.29193 27.2433L3.75203 28.7034C4.35802 29.3058 5.33671 29.3058 5.9427 28.7034L6.34777 28.2988C6.49928 28.1468 6.72952 28.1056 6.92437 28.1955C7.08453 28.2683 7.24625 28.336 7.4121 28.4021C7.61496 28.4742 7.75039 28.6663 7.75 28.8816V29.4499C7.75 30.306 8.44395 30.9999 9.3 30.9999H11.3667C12.2227 30.9999 12.9167 30.306 12.9167 29.4499V28.8816C12.9163 28.6678 13.0496 28.4766 13.2504 28.4032C13.4158 28.3401 13.5775 28.2725 13.7377 28.1996C13.9325 28.1095 14.1628 28.1508 14.3143 28.3029L14.7198 28.708C15.3266 29.3091 16.3046 29.3079 16.91 28.7054L18.3701 27.2453C18.9725 26.6393 18.9725 25.6606 18.3701 25.0547L17.9655 24.6496C17.813 24.4984 17.7717 24.2678 17.8622 24.073C17.9351 23.9128 18.0027 23.7511 18.0689 23.5853C18.1418 23.3834 18.3337 23.2492 18.5483 23.2499H19.1167C19.9727 23.2499 20.6667 22.556 20.6667 21.6999V19.6333C20.6667 18.7772 19.9727 18.0833 19.1167 18.0833ZM19.6333 21.6999C19.6333 21.9853 19.402 22.2166 19.1167 22.2166H18.5483C17.9061 22.219 17.3313 22.616 17.1017 23.2158C17.0469 23.3605 16.9877 23.5029 16.9239 23.6431C16.6583 24.2295 16.7815 24.919 17.2339 25.3771L17.638 25.7816C17.8399 25.9832 17.84 26.3104 17.6384 26.5123C17.6382 26.5124 17.6381 26.5126 17.638 26.5127L16.1779 27.9728C15.9761 28.1745 15.6491 28.1745 15.4473 27.9728L15.0422 27.5682C14.5844 27.1154 13.8947 26.9922 13.3083 27.2582C13.1683 27.3218 13.0257 27.3812 12.8821 27.436C12.2827 27.6655 11.8859 28.2398 11.8833 28.8816V29.4499C11.8833 29.7353 11.652 29.9666 11.3667 29.9666H9.3C9.01467 29.9666 8.78333 29.7353 8.78333 29.4499V28.8816C8.78094 28.2393 8.38395 27.6645 7.7841 27.4349C7.63943 27.3802 7.49703 27.3209 7.35682 27.2572C6.7704 26.9917 6.08097 27.115 5.62288 27.5672L5.21833 27.9712C5.0167 28.1731 4.68953 28.1733 4.48764 27.9716C4.48751 27.9715 4.48738 27.9714 4.48725 27.9712L3.02715 26.5127C2.82546 26.3109 2.82546 25.9839 3.02715 25.7821L3.4317 25.3771C3.88411 24.919 4.00733 24.2295 3.7417 23.6431C3.67815 23.5031 3.61873 23.3605 3.56397 23.2169C3.33495 22.6168 2.76055 22.2194 2.11833 22.2166H1.55C1.26467 22.2166 1.03333 21.9853 1.03333 21.6999V19.6333C1.03333 19.3479 1.26467 19.1166 1.55 19.1166H2.11833C2.76061 19.1142 3.33541 18.7172 3.565 18.1174C3.61977 17.9727 3.67899 17.8303 3.74273 17.6901C4.00836 17.1037 3.88508 16.4142 3.43273 15.9562L3.02663 15.5516C2.82475 15.35 2.82455 15.0228 3.02625 14.8209C3.02638 14.8208 3.0265 14.8206 3.02663 14.8205L4.48673 13.3604C4.68849 13.1587 5.01554 13.1587 5.2173 13.3604L5.62237 13.765C6.0802 14.2178 6.76995 14.3411 7.3563 14.075C7.49632 14.0114 7.63892 13.952 7.78255 13.8972C8.38279 13.6684 8.78043 13.0939 8.78333 12.4516V11.8833C8.78333 11.5979 9.01467 11.3666 9.3 11.3666H11.3667C11.652 11.3666 11.8833 11.5979 11.8833 11.8833V12.4516C11.8857 13.0939 12.2827 13.6687 12.8826 13.8983C13.0272 13.953 13.1696 14.0123 13.3099 14.076C13.8962 14.3421 14.586 14.2188 15.0438 13.766L15.4483 13.362C15.6509 13.1616 15.9769 13.1616 16.1794 13.362L17.6395 14.8221C17.8412 15.0238 17.8412 15.3509 17.6395 15.5526L17.235 15.9577C16.7826 16.4157 16.6593 17.1052 16.925 17.6916C16.9885 17.8317 17.0479 17.9743 17.1027 18.1179C17.3322 18.7173 17.9065 19.114 18.5483 19.1166H19.1167C19.402 19.1166 19.6333 19.3479 19.6333 19.6333V21.6999Z" fill="black"/>
<path d="M14.972 20.4601C14.9669 20.3361 14.9581 20.2126 14.9431 20.0897C14.9266 19.9574 14.9069 19.8262 14.8795 19.6975C14.8615 19.6133 14.8377 19.5301 14.815 19.4464C14.786 19.34 14.7535 19.2351 14.7173 19.1318C14.692 19.0599 14.6656 18.9886 14.6388 18.9179C14.5723 18.7524 14.4962 18.5909 14.4109 18.4343C14.4042 18.4224 14.4001 18.4095 14.3934 18.3976C14.259 18.1584 14.1033 17.9316 13.9284 17.7202C13.9134 17.7016 13.8963 17.6841 13.8808 17.666C13.8095 17.5818 13.7362 17.5001 13.6592 17.4221C13.6189 17.3803 13.5765 17.341 13.5341 17.3007C13.4825 17.2526 13.4308 17.2051 13.3791 17.1596C13.3164 17.1052 13.2526 17.0525 13.1875 17.0015L13.1027 16.9385C12.3033 16.3397 11.3312 16.0163 10.3324 16.0168C10.2807 16.0168 10.229 16.0245 10.1774 16.0266C10.0673 16.0297 9.95675 16.0359 9.84567 16.0473C9.78728 16.0535 9.72838 16.0602 9.67 16.0684C9.50157 16.0906 9.33442 16.1219 9.16935 16.162C6.68154 16.8048 5.18591 19.3428 5.82878 21.8306C6.25244 23.47 7.53326 24.7498 9.17297 25.1721C9.18123 25.1721 9.19002 25.1747 9.1988 25.1768C9.37724 25.2213 9.55801 25.2558 9.74027 25.2801C9.86065 25.2951 9.98103 25.2982 10.1019 25.3039C10.1825 25.308 10.2569 25.3199 10.3411 25.3199C10.4884 25.3199 10.6413 25.3101 10.7974 25.2946C10.8139 25.2946 10.8304 25.2899 10.849 25.2878C10.9746 25.2739 11.1017 25.2553 11.2314 25.2295C11.283 25.2197 11.3311 25.2067 11.3807 25.1954C11.4716 25.1742 11.562 25.152 11.655 25.1246C11.7274 25.1029 11.7976 25.0776 11.8684 25.0528C11.9392 25.028 12.0126 25.0011 12.0859 24.9732C12.1593 24.9453 12.2208 24.9133 12.2874 24.8823C12.3742 24.8425 12.4605 24.8032 12.5458 24.7567H12.5489C13.031 24.4986 13.4764 24.177 13.8731 23.8004C13.9802 23.7004 14.0734 23.5863 14.15 23.4614C14.5533 22.815 14.8182 22.0919 14.9281 21.3379C14.9426 21.2382 14.9555 21.1385 14.9632 21.0367C14.9705 20.9432 14.9756 20.8502 14.9777 20.7572C14.9777 20.7277 14.9818 20.6998 14.9818 20.6704C14.9824 20.5975 14.9751 20.5304 14.972 20.4601ZM13.9423 20.7985C13.9423 20.8414 13.9387 20.8843 13.9361 20.9267C13.9268 21.0517 13.9108 21.1767 13.8896 21.3023C13.6965 22.3765 13.0296 23.3065 12.074 23.8339C12.01 23.8675 11.9469 23.899 11.8839 23.928L11.841 23.9486C11.5408 24.0849 11.224 24.1808 10.8986 24.2338C10.8759 24.2375 10.8526 24.2416 10.8294 24.2447C10.7648 24.254 10.7013 24.2617 10.6382 24.2674C10.555 24.2747 10.4713 24.2788 10.3861 24.2803C10.3499 24.2803 10.3143 24.2803 10.2781 24.2803C10.1559 24.2789 10.0338 24.2714 9.91232 24.2576L9.85032 24.2504C9.70823 24.2318 9.56731 24.2052 9.4282 24.1708C7.49315 23.6755 6.326 21.7053 6.82123 19.7703C7.14847 18.4917 8.14629 17.4928 9.42458 17.1643V17.1638C9.72141 17.0889 10.0262 17.0507 10.3324 17.0501C10.4801 17.051 10.6276 17.061 10.7741 17.0801C10.8134 17.0847 10.8521 17.092 10.8909 17.0976C11.0025 17.1152 11.113 17.1374 11.2221 17.1653C11.2577 17.1746 11.2934 17.1829 11.3285 17.1927C11.6032 17.272 11.8677 17.3834 12.1164 17.5244C12.1562 17.5477 12.1949 17.5719 12.2342 17.5962C12.3158 17.6479 12.3949 17.6996 12.4729 17.7585C12.5148 17.7889 12.5571 17.8189 12.5974 17.8515C12.6988 17.9324 12.7959 18.0187 12.8883 18.1098C12.925 18.147 12.9586 18.1878 12.9942 18.2266C13.0536 18.2911 13.1115 18.3573 13.1668 18.427C13.205 18.4751 13.2417 18.5247 13.2779 18.5748C13.3295 18.6492 13.3812 18.7267 13.4277 18.8052C13.4535 18.8481 13.4794 18.89 13.5057 18.9339C13.5724 19.0565 13.6317 19.183 13.6835 19.3126C13.7041 19.3643 13.7217 19.4159 13.7403 19.4676C13.7739 19.5627 13.8028 19.6588 13.8281 19.7559C13.841 19.8076 13.8555 19.8535 13.8664 19.9037C13.8965 20.0433 13.9184 20.1846 13.932 20.3268C13.9351 20.3645 13.9351 20.4028 13.9377 20.4405C13.9449 20.5593 13.947 20.6787 13.9423 20.7985Z" fill="black"/>
<path d="M29.4491 10.85H27.8242C27.6075 10.8522 27.4137 10.7157 27.3427 10.5111C27.1825 10.0311 26.9886 9.56305 26.7625 9.11038C26.6665 8.91489 26.7065 8.67987 26.8617 8.52707L28.0138 7.37335C28.6186 6.76814 28.6186 5.78738 28.0138 5.18217L25.817 2.98892C25.2118 2.38416 24.231 2.38416 23.6258 2.98892L22.4741 4.14005C22.3215 4.29518 22.0868 4.33535 21.8913 4.23977C21.4386 4.0125 20.9704 3.81759 20.4901 3.65645C20.2846 3.58612 20.1472 3.39211 20.1491 3.17492V1.55C20.1491 0.693948 19.4552 0 18.5991 0H15.4991C14.6431 0 13.9491 0.693948 13.9491 1.55V3.17492C13.9513 3.39159 13.8149 3.58541 13.6102 3.65645C13.1302 3.81752 12.6621 4.0123 12.2095 4.23925C12.014 4.33554 11.7789 4.29557 11.6262 4.14005L10.4725 2.98788C9.86657 2.38487 8.88723 2.38487 8.28131 2.98788L6.08858 5.18062C5.4835 5.78589 5.4835 6.76704 6.08858 7.37232L7.78273 9.06957C7.98765 9.2681 8.31476 9.26293 8.51329 9.05794C8.70698 8.85799 8.70743 8.5405 8.51433 8.34003L6.81914 6.6433C6.61745 6.44154 6.61745 6.11449 6.81914 5.91273L9.01188 3.72C9.21363 3.51831 9.54068 3.51831 9.74244 3.72L10.8967 4.87217C11.3637 5.34195 12.0793 5.45936 12.6719 5.16357C13.0812 4.95864 13.5044 4.78272 13.9383 4.63708C14.5646 4.42506 14.9852 3.83619 14.9825 3.17492V1.55C14.9825 1.26467 15.2138 1.03333 15.4991 1.03333H18.5991C18.8845 1.03333 19.1158 1.26467 19.1158 1.55V3.17492C19.1132 3.83606 19.5337 4.42473 20.16 4.63657C20.5941 4.78227 21.0175 4.95832 21.4269 5.16357C22.0197 5.45781 22.7343 5.34027 23.2016 4.87165L24.3558 3.72C24.5576 3.51831 24.8846 3.51831 25.0864 3.72L27.2791 5.91325C27.4805 6.11494 27.4805 6.44161 27.2791 6.6433L26.127 7.79753C25.6576 8.26479 25.5403 8.98005 25.8356 9.5728C26.0405 9.98207 26.2164 10.4052 26.3621 10.8392C26.574 11.4656 27.1629 11.8862 27.8242 11.8833H29.4491C29.7345 11.8833 29.9658 12.1147 29.9658 12.4V15.5C29.9658 15.7853 29.7345 16.0167 29.4491 16.0167H27.8242C27.1631 16.014 26.5744 16.4346 26.3626 17.0609C26.2169 17.495 26.0408 17.9183 25.8356 18.3277C25.5408 18.9205 25.6584 19.6353 26.1275 20.1025L27.2797 21.2567C27.4814 21.4585 27.4814 21.7855 27.2797 21.9873L25.0859 24.18C24.8842 24.3814 24.5575 24.3814 24.3558 24.18L22.6581 22.4859C22.4595 22.2809 22.1324 22.2757 21.9275 22.4742C21.7225 22.6728 21.7174 22.9999 21.9159 23.2048C21.92 23.2091 21.9243 23.2133 21.9285 23.2175L23.6258 24.9116C24.231 25.5164 25.2118 25.5164 25.817 24.9116L28.0097 22.7194C28.6148 22.1141 28.6148 21.133 28.0097 20.5277L26.8591 19.375C26.7041 19.2223 26.664 18.9877 26.7594 18.7922C26.9866 18.3395 27.1816 17.8712 27.3427 17.391C27.413 17.1855 27.607 17.0481 27.8242 17.05H29.4491C30.3052 17.05 30.9991 16.3561 30.9991 15.5V12.4C30.9991 11.5439 30.3052 10.85 29.4491 10.85Z" fill="black"/>
<path d="M21.7977 9.20075C19.1732 6.5817 14.9238 6.5817 12.2993 9.20075C12.1011 9.406 12.1068 9.73311 12.312 9.93132C12.5122 10.1247 12.8297 10.1247 13.0299 9.93132C15.2344 7.69699 18.8328 7.6729 21.0671 9.87745C23.3015 12.082 23.3256 15.6804 21.121 17.9147C21.1032 17.9328 21.0852 17.9508 21.0671 17.9686C20.8619 18.1669 20.8562 18.4939 21.0545 18.6992C21.2528 18.9044 21.5798 18.9101 21.7851 18.7118C21.7893 18.7077 21.7936 18.7034 21.7977 18.6992C24.4168 16.0746 24.4168 11.8253 21.7977 9.20075Z" fill="black"/>
</svg>
