<svg width="26" height="26" viewBox="0 0 26 26" fill="none" xmlns="http://www.w3.org/2000/svg">
<circle cx="13" cy="13" r="12.5" stroke="black"/>
<path d="M12.6883 7.75188C12.3683 7.75188 12.0883 7.63988 11.8483 7.41588C11.6083 7.17588 11.4883 6.88788 11.4883 6.55188C11.4883 6.21588 11.6083 5.92788 11.8483 5.68788C12.0883 5.44788 12.3683 5.32788 12.6883 5.32788C13.0243 5.32788 13.3123 5.44788 13.5523 5.68788C13.7923 5.92788 13.9123 6.21588 13.9123 6.55188C13.9123 6.88788 13.7923 7.17588 13.5523 7.41588C13.3123 7.63988 13.0243 7.75188 12.6883 7.75188ZM13.6003 20.9999H11.8003V9.40788H13.6003V20.9999Z" fill="black"/>
</svg>
