<svg width="28" height="24" viewBox="0 0 28 24" fill="none" xmlns="http://www.w3.org/2000/svg">
<path d="M28 7.61775C28 7.5982 27.9981 7.57908 27.9955 7.56025C27.9952 7.55801 27.9953 7.5556 27.995 7.55336C27.845 3.36295 24.3777 0 20.137 0C18.0578 0 16.0972 0.802621 14.6164 2.25999C14.4395 2.4341 13.9726 2.81229 13.9726 2.81229C13.9726 2.81229 13.5466 2.4204 13.3836 2.25999C11.9029 0.802621 9.9423 0 7.86307 0C3.62236 0 0.155014 3.36295 0.00509589 7.55336C0.00175342 7.57433 0 7.59585 0 7.61775C0 7.65559 0.000219178 7.6936 0.000712329 7.73149C0.000219178 7.76644 0 7.80112 0 7.83618C0 7.85584 0.00136986 7.87517 0.00405479 7.89412C0.100384 11.1596 1.90088 14.5038 5.35956 17.8384C8.15781 20.5362 11.3 22.5042 12.9239 23.4371C13.2558 23.6278 14 24 14 24C14 24 14.7442 23.6277 15.0761 23.4371C16.7 22.5042 19.8421 20.5362 22.6404 17.8384C26.0991 14.5038 27.8996 11.1596 27.9959 7.89412C27.9962 7.8921 27.9961 7.88997 27.9964 7.88795C27.9985 7.87096 28 7.85376 28 7.83618V7.61775ZM14.6656 22.7275C14.4572 22.8472 14 23.099 14 23.099C14 23.099 13.5428 22.8472 13.3344 22.7275C11.7433 21.8134 8.66581 19.8863 5.93107 17.2496C2.5823 14.021 0.864164 10.8193 0.822685 7.73193C0.878685 3.9105 4.0154 0.819113 7.86301 0.819113C9.72466 0.819113 11.4802 1.5378 12.806 2.84281C13.1283 3.15994 13.9726 3.95904 13.9726 3.95904C13.9726 3.95904 14.8578 3.17361 15.1939 2.84281C16.5198 1.53786 18.2753 0.819113 20.1369 0.819113C23.9626 0.819113 27.0849 3.87593 27.1755 7.66722C27.1743 7.68688 27.173 7.70659 27.1728 7.72631C27.1728 7.72986 27.1728 7.73346 27.1728 7.73706C27.173 7.75705 27.1744 7.77676 27.1757 7.79648C27.0224 15.0662 17.577 21.0549 14.6656 22.7275Z" fill="black"/>
</svg>
