<svg width="27" height="27" viewBox="0 0 27 27" fill="none" xmlns="http://www.w3.org/2000/svg">
<path d="M24.182 2.36682H21.4899V0.988136C21.4899 0.455884 21.0583 0.0244141 20.5261 0.0244141C19.9939 0.0244141 19.5624 0.455884 19.5624 0.988136V2.36677H7.44245V0.988136C7.44245 0.455884 7.01098 0.0244141 6.47873 0.0244141C5.94648 0.0244141 5.51501 0.455884 5.51501 0.988136V2.36677H2.82284C1.3805 2.36677 0.207031 3.54024 0.207031 4.98259V24.3637C0.207031 25.806 1.3805 26.9794 2.82284 26.9794H24.182C25.6244 26.9794 26.7978 25.806 26.7978 24.3637V4.98259C26.7978 3.54029 25.6244 2.36682 24.182 2.36682ZM2.13447 4.98263C2.13447 4.60241 2.44266 4.29426 2.82284 4.29426H5.51501V5.39399C5.51501 5.92624 5.94648 6.35771 6.47873 6.35771C7.01098 6.35771 7.44245 5.92624 7.44245 5.39399V4.29426H19.5624V5.39399C19.5624 5.92624 19.9939 6.35771 20.5261 6.35771C21.0583 6.35771 21.4899 5.92624 21.4899 5.39399V4.29426H24.182C24.5622 4.29426 24.8703 4.60245 24.8703 4.98263V7.4057H2.13447V4.98263ZM24.8703 24.3637C24.8703 24.7438 24.5622 25.0521 24.182 25.0521H2.82284C2.44266 25.0521 2.13447 24.7438 2.13447 24.3637V9.33315H24.8703V24.3637Z" fill="#6FA9C6"/>
<path d="M24.1791 27H2.81995C1.36519 27 0.181641 25.8164 0.181641 24.3617V4.98067C0.181641 3.52591 1.36519 2.34236 2.81995 2.34236H5.48957V0.986218C5.48957 0.442403 5.93197 0 6.47579 0C7.01956 0 7.462 0.442403 7.462 0.986218V2.34236H19.537V0.986218C19.537 0.442403 19.9794 0 20.5232 0C21.0671 0 21.5095 0.442403 21.5095 0.986218V2.3424H24.1791C25.6339 2.3424 26.8174 3.52595 26.8174 4.98071V24.3618C26.8174 25.8165 25.6339 27 24.1791 27ZM2.81995 2.38735C1.38998 2.38735 0.226632 3.5507 0.226632 4.98067V24.3617C0.226632 25.7917 1.38998 26.955 2.81995 26.955H24.1791C25.6091 26.955 26.7724 25.7917 26.7724 24.3617V4.98067C26.7724 3.5507 25.6091 2.38735 24.1791 2.38735H21.4645V0.986218C21.4645 0.467194 21.0422 0.0449917 20.5232 0.0449917C20.0043 0.0449917 19.582 0.467239 19.582 0.986218V2.38735H7.41706V0.986218C7.41706 0.467194 6.99481 0.0449917 6.47583 0.0449917C5.95681 0.0449917 5.53461 0.467239 5.53461 0.986218V2.38735H2.81995ZM24.1791 25.0726H2.81995C2.42798 25.0726 2.10908 24.7537 2.10908 24.3617V9.30873H24.89V24.3618C24.89 24.7538 24.5711 25.0726 24.1791 25.0726ZM2.15407 9.35372V24.3618C2.15407 24.729 2.45277 25.0277 2.81995 25.0277H24.1791C24.5462 25.0277 24.845 24.729 24.845 24.3618V9.35372H2.15407ZM24.89 7.42628H2.10908V4.98071C2.10908 4.58875 2.42798 4.26985 2.81995 4.26985H5.53461V5.39207C5.53461 5.91105 5.95685 6.3333 6.47583 6.3333C6.99481 6.3333 7.41706 5.91105 7.41706 5.39207V4.26985H19.582V5.39207C19.582 5.91105 20.0043 6.3333 20.5232 6.3333C21.0422 6.3333 21.4645 5.91105 21.4645 5.39207V4.26985H24.1791C24.5711 4.26985 24.89 4.58875 24.89 4.98071V7.42628ZM2.15407 7.38129H24.845V4.98071C24.845 4.61354 24.5462 4.31484 24.1791 4.31484H21.5095V5.39207C21.5095 5.93589 21.0671 6.37829 20.5232 6.37829C19.9794 6.37829 19.537 5.93589 19.537 5.39207V4.31484H7.46205V5.39207C7.46205 5.93589 7.01965 6.37829 6.47583 6.37829C5.93202 6.37829 5.48962 5.93589 5.48962 5.39207V4.31484H2.81995C2.45277 4.31484 2.15407 4.61354 2.15407 4.98071V7.38129Z" fill="#6FA9C6"/>
</svg>
