<svg width="30" height="30" viewBox="0 0 30 30" fill="none" xmlns="http://www.w3.org/2000/svg">
<path d="M20.2174 11.7391C20.5774 11.7391 20.8696 11.4469 20.8696 11.0869V3.26085C20.8695 1.46348 19.4074 0 17.6087 0H3.26085C1.46219 0 0 1.46348 0 3.26085V26.7391C0 28.5365 1.46219 29.9999 3.26085 29.9999H17.6087C19.4074 29.9999 20.8695 28.5365 20.8695 26.7391V18.913C20.8695 18.553 20.5773 18.2608 20.2173 18.2608C19.8573 18.2608 19.5652 18.553 19.5652 18.913V26.7391C19.5652 27.8178 18.6874 28.6956 17.6087 28.6956H3.26085C2.18213 28.6956 1.30433 27.8178 1.30433 26.7391V3.26085C1.30433 2.18213 2.18213 1.30433 3.26085 1.30433H17.6087C18.6874 1.30433 19.5652 2.18213 19.5652 3.26085V11.0869C19.5652 11.4469 19.8574 11.7391 20.2174 11.7391Z" fill="black"/>
<path d="M29.3479 14.3479H8.47837C8.11837 14.3479 7.82617 14.6401 7.82617 15.0001C7.82617 15.3601 8.11837 15.6522 8.47837 15.6522H29.3479C29.7079 15.6522 30.0001 15.36 30.0001 15C30.0001 14.64 29.7079 14.3479 29.3479 14.3479Z" fill="black"/>
<path d="M29.8092 14.5409L25.8962 10.6279C25.6418 10.3735 25.2283 10.3735 24.974 10.6279C24.7196 10.8822 24.7196 11.2957 24.974 11.5501L28.4253 15.0014L24.974 18.4527C24.7196 18.707 24.7196 19.1205 24.974 19.3749C25.1018 19.5014 25.2687 19.5653 25.4357 19.5653C25.6027 19.5653 25.7696 19.5014 25.8962 19.3762L29.8092 15.4632C30.0635 15.2088 30.0635 14.7953 29.8092 14.5409Z" fill="black"/>
</svg>
