<svg width="34" height="34" viewBox="0 0 34 34" fill="none" xmlns="http://www.w3.org/2000/svg">
<path d="M34 32.8667H0V34H34V32.8667Z" fill="black"/>
<path d="M2.26589 31.7332H7.93255C8.24549 31.7332 8.49922 31.4795 8.49922 31.1666V20.9666C8.49922 20.6536 8.24549 20.3999 7.93255 20.3999H2.26589C1.95294 20.3999 1.69922 20.6536 1.69922 20.9666V31.1666C1.69922 31.4795 1.95294 31.7332 2.26589 31.7332ZM2.83255 21.5332H7.36589V30.5999H2.83255V21.5332Z" fill="black"/>
<path d="M18.1331 31.7334H23.7997C24.1127 31.7334 24.3664 31.4797 24.3664 31.1668V14.1668C24.3664 13.8538 24.1127 13.6001 23.7997 13.6001H18.1331C17.8201 13.6001 17.5664 13.8538 17.5664 14.1668V31.1668C17.5664 31.4797 17.8201 31.7334 18.1331 31.7334ZM18.6997 14.7334H23.2331V30.6001H18.6997V14.7334Z" fill="black"/>
<path d="M10.1995 31.7334H15.8661C16.1791 31.7334 16.4328 31.4797 16.4328 31.1667V7.36672C16.4328 7.05377 16.1791 6.80005 15.8661 6.80005H10.1995C9.88654 6.80005 9.63281 7.05377 9.63281 7.36672V31.1667C9.63281 31.4797 9.88654 31.7334 10.1995 31.7334ZM10.7661 7.93338H15.2995V30.6H10.7661V7.93338Z" fill="black"/>
<path d="M26.0667 31.7333H31.7333C32.0463 31.7333 32.3 31.4796 32.3 31.1667V0.566667C32.3 0.253725 32.0463 0 31.7333 0H26.0667C25.7537 0 25.5 0.253725 25.5 0.566667V31.1667C25.5 31.4796 25.7537 31.7333 26.0667 31.7333ZM26.6333 1.13333H31.1667V30.6H26.6333V1.13333Z" fill="black"/>
</svg>
