<svg width="28" height="28" viewBox="0 0 28 28" fill="none" xmlns="http://www.w3.org/2000/svg">
<path d="M22.3288 11.8356C22.1018 11.8356 21.9178 12.0196 21.9178 12.2466V25.8356C21.9178 26.5758 21.3156 27.1781 20.5753 27.1781H2.16438C1.42416 27.1781 0.821918 26.5758 0.821918 25.8356V7.42465C0.821918 6.68443 1.42416 6.08219 2.16438 6.08219H15.7534C15.9804 6.08219 16.1644 5.89819 16.1644 5.67123C16.1644 5.44427 15.9804 5.26027 15.7534 5.26027H2.16438C0.970959 5.26027 0 6.23123 0 7.42465V25.8356C0 27.029 0.970959 28 2.16438 28H20.5753C21.7688 28 22.7397 27.029 22.7397 25.8356V12.2466C22.7397 12.0196 22.5557 11.8356 22.3288 11.8356Z" fill="black"/>
<path d="M27.4951 2.36531L25.6353 0.505534C25.3093 0.179507 24.8759 0 24.4148 0C23.9538 0 23.5203 0.179507 23.1944 0.505534L10.5616 13.1382C10.5145 13.1853 10.4796 13.2431 10.4598 13.3067L9.02692 17.9103C8.93284 18.2126 9.01344 18.5394 9.23728 18.7633C9.39936 18.9253 9.61531 19.0123 9.83689 19.0123C9.92139 19.0123 10.0068 18.9996 10.0903 18.9736L14.6939 17.5408C14.7574 17.521 14.8153 17.486 14.8623 17.439L27.4951 4.8063C27.8211 4.48027 28.0006 4.04685 28.0006 3.58586C28.0006 3.12477 27.8211 2.69134 27.4951 2.36531ZM12.3063 17.4232L10.5774 15.6943L11.1465 13.866L14.1345 16.8541L12.3063 17.4232ZM9.84605 18.1889C9.83936 18.191 9.83026 18.1939 9.81854 18.1821C9.80681 18.1705 9.80966 18.1613 9.81174 18.1546L10.3016 16.5808L11.4199 17.6991L9.84605 18.1889ZM26.9139 4.2251L14.7909 16.3481L11.6525 13.2097L23.7755 1.08674C23.9463 0.916 24.1733 0.821918 24.4148 0.821918C24.6563 0.821918 24.8834 0.915945 25.0541 1.08674L26.9139 2.94652C27.0846 3.11732 27.1787 3.34433 27.1787 3.58581C27.1787 3.82734 27.0847 4.05436 26.9139 4.2251Z" fill="black"/>
</svg>
