<svg width="29" height="29" viewBox="0 0 29 29" fill="none" xmlns="http://www.w3.org/2000/svg">
<path d="M25.2617 2.26562H22.6562V0.90625C22.6562 0.405773 22.2505 0 21.75 0C21.2495 0 20.8438 0.405773 20.8438 0.90625V2.26562H8.15625V0.90625C8.15625 0.405773 7.75053 0 7.25 0C6.74947 0 6.34375 0.405773 6.34375 0.90625V2.26562H3.73828C1.67696 2.26562 0 3.94258 0 6.00391V25.2617C0 27.323 1.67696 29 3.73828 29H25.2617C27.323 29 29 27.323 29 25.2617V6.00391C29 3.94258 27.323 2.26562 25.2617 2.26562ZM3.73828 4.07812H6.34375V4.98438C6.34375 5.48485 6.74947 5.89062 7.25 5.89062C7.75053 5.89062 8.15625 5.48485 8.15625 4.98438V4.07812H20.8438V4.98438C20.8438 5.48485 21.2495 5.89062 21.75 5.89062C22.2505 5.89062 22.6562 5.48485 22.6562 4.98438V4.07812H25.2617C26.3236 4.07812 27.1875 4.94201 27.1875 6.00391V8.15625H1.8125V6.00391C1.8125 4.94201 2.67638 4.07812 3.73828 4.07812ZM25.2617 27.1875H3.73828C2.67638 27.1875 1.8125 26.3236 1.8125 25.2617V9.96875H27.1875V25.2617C27.1875 26.3236 26.3236 27.1875 25.2617 27.1875Z" fill="#535360"/>
</svg>
