<svg width="22" height="19" viewBox="0 0 22 19" fill="none" xmlns="http://www.w3.org/2000/svg">
<path d="M11.0106 0C5.42989 0 0.889648 4.2617 0.889648 9.5C0.889648 11.7942 1.76072 13.901 3.20869 15.5445C3.2124 15.5493 3.21273 15.5553 3.21678 15.5597C4.26227 16.7431 5.57529 17.6504 7.03844 18.2365C7.05531 18.2432 7.07184 18.2505 7.08871 18.2571C7.20712 18.304 7.32688 18.3474 7.44699 18.3898C7.49422 18.4066 7.54145 18.4237 7.58935 18.4398C7.69292 18.4746 7.79717 18.5076 7.90209 18.5392C7.96922 18.5595 8.03636 18.5795 8.10417 18.5985C8.19694 18.6244 8.29006 18.6494 8.38384 18.6732C8.46616 18.6941 8.54915 18.7134 8.63214 18.7321C8.71615 18.7511 8.80049 18.7701 8.88517 18.7869C8.97963 18.8059 9.0751 18.8227 9.17091 18.8391C9.24783 18.8524 9.32441 18.8664 9.40201 18.8781C9.50828 18.8942 9.61522 18.9069 9.7225 18.9199C9.79166 18.9281 9.86049 18.9376 9.92998 18.9446C10.0514 18.9566 10.1739 18.9652 10.2967 18.9731C10.3537 18.9769 10.4104 18.9826 10.4677 18.9854C10.6469 18.9949 10.828 19 11.0106 19C11.1931 19 11.3742 18.9949 11.5541 18.9861C11.6114 18.9832 11.6681 18.9775 11.7251 18.9737C11.8479 18.9655 11.9704 18.9573 12.0918 18.9452C12.1613 18.9382 12.2301 18.9287 12.2993 18.9205C12.4066 18.9075 12.5135 18.8949 12.6198 18.8787C12.697 18.867 12.774 18.8531 12.8509 18.8398C12.9464 18.8233 13.0418 18.8065 13.1366 18.7875C13.2213 18.7704 13.3053 18.7517 13.3896 18.7327C13.4726 18.7137 13.5556 18.6944 13.6379 18.6738C13.7317 18.6504 13.8248 18.6251 13.9176 18.5991C13.9854 18.5801 14.0526 18.5602 14.1197 18.5399C14.2246 18.5082 14.3289 18.4753 14.4324 18.4405C14.48 18.4243 14.5272 18.4072 14.5748 18.3904C14.6952 18.348 14.8147 18.3043 14.9331 18.2577C14.95 18.2511 14.9665 18.2438 14.9834 18.2372C16.4462 17.651 17.7595 16.7437 18.805 15.5604C18.8091 15.5559 18.8094 15.5496 18.8131 15.5452C20.2604 13.901 21.1315 11.7942 21.1315 9.5C21.1315 4.2617 16.5912 0 11.0106 0ZM15.1119 17.4863C15.1068 17.4886 15.1021 17.4911 15.097 17.4933C14.9766 17.5478 14.8541 17.5991 14.7307 17.6491C14.7027 17.6602 14.675 17.6716 14.647 17.6827C14.539 17.7251 14.4297 17.7653 14.3198 17.8039C14.2739 17.8201 14.228 17.8359 14.1818 17.8511C14.0843 17.8838 13.9864 17.9151 13.8876 17.9449C13.8262 17.9632 13.7645 17.9806 13.7027 17.9977C13.615 18.0224 13.527 18.0462 13.4379 18.0684C13.363 18.087 13.2874 18.1041 13.2119 18.1209C13.1326 18.1387 13.0536 18.1567 12.9737 18.1726C12.8863 18.19 12.7982 18.2048 12.7105 18.2197C12.6393 18.2321 12.5685 18.2451 12.4966 18.2558C12.3978 18.2704 12.2979 18.2821 12.1984 18.2938C12.1353 18.3014 12.0726 18.3103 12.0088 18.3166C11.8951 18.328 11.7804 18.3353 11.6661 18.3429C11.6151 18.3461 11.5645 18.3515 11.5129 18.354C11.3459 18.3622 11.1786 18.3667 11.0106 18.3667C10.8426 18.3667 10.6752 18.3622 10.5086 18.354C10.4573 18.3515 10.4067 18.3464 10.3554 18.3429C10.2407 18.3356 10.1263 18.328 10.0126 18.3166C9.94887 18.3103 9.88612 18.3014 9.82304 18.2938C9.72351 18.2821 9.62366 18.2704 9.52481 18.2558C9.45295 18.2451 9.3821 18.2321 9.31092 18.2197C9.22287 18.2048 9.13482 18.1896 9.04778 18.1726C8.96782 18.1567 8.88854 18.1387 8.8096 18.1209C8.73403 18.1038 8.65846 18.087 8.58356 18.0684C8.49484 18.0462 8.40645 18.0221 8.31873 17.9977C8.257 17.9806 8.19526 17.9632 8.13386 17.9449C8.03501 17.9151 7.93684 17.8838 7.83968 17.8511C7.79346 17.8356 7.74758 17.8198 7.70169 17.8039C7.59171 17.7653 7.48241 17.7251 7.37445 17.6827C7.34645 17.6719 7.31912 17.6605 7.29112 17.6494C7.16765 17.5997 7.04519 17.5481 6.92441 17.4936C6.91935 17.4914 6.91463 17.4892 6.90956 17.4867C5.7325 16.9521 4.69275 16.1934 3.849 15.2719C4.50113 13.0178 6.34718 11.2008 8.72222 10.4779C8.76911 10.5048 8.81803 10.5288 8.86627 10.5542C8.89461 10.5691 8.92261 10.5849 8.95129 10.5991C9.05182 10.6492 9.15371 10.696 9.25795 10.7382C9.33791 10.7711 9.42056 10.799 9.50288 10.8275C9.51907 10.8329 9.53527 10.8389 9.55146 10.8442C10.0089 10.9962 10.4984 11.0833 11.0106 11.0833C11.5227 11.0833 12.0122 10.9962 12.4693 10.8442C12.4855 10.8389 12.5017 10.8329 12.5179 10.8275C12.6002 10.799 12.6829 10.7711 12.7628 10.7382C12.8671 10.696 12.969 10.6492 13.0695 10.5991C13.0982 10.5846 13.1262 10.5691 13.1545 10.5542C13.2027 10.5288 13.252 10.5048 13.2992 10.4776C15.6743 11.2008 17.52 13.0178 18.1724 15.2716C17.3287 16.1928 16.2889 16.9515 15.1119 17.4863ZM7.29956 6.96667C7.29956 5.04608 8.96445 3.48333 11.0106 3.48333C13.0567 3.48333 14.7216 5.04608 14.7216 6.96667C14.7216 8.18837 14.0465 9.26345 13.0293 9.88538C12.8964 9.96645 12.7581 10.039 12.6161 10.1023C12.5992 10.1099 12.5827 10.1178 12.5658 10.1251C11.5888 10.5422 10.4323 10.5422 9.45531 10.1251C9.43844 10.1178 9.42157 10.1099 9.40504 10.1023C9.26268 10.039 9.12469 9.96645 8.99177 9.88538C7.97462 9.26345 7.29956 8.18837 7.29956 6.96667ZM18.6785 14.669C17.9137 12.5492 16.1688 10.836 13.9395 10.0222C14.8312 9.2682 15.3963 8.1795 15.3963 6.96667C15.3963 4.6968 13.4288 2.85 11.0106 2.85C8.59233 2.85 6.62483 4.6968 6.62483 6.96667C6.62483 8.1795 7.18991 9.2682 8.0819 10.0222C5.8526 10.8363 4.10776 12.5492 3.34296 14.669C2.22527 13.2126 1.56438 11.4279 1.56438 9.5C1.56438 4.61098 5.802 0.633333 11.0106 0.633333C16.2191 0.633333 20.4567 4.61098 20.4567 9.5C20.4567 11.4279 19.7958 13.2126 18.6785 14.669Z" fill="white"/>
</svg>
