<svg width="20" height="22" viewBox="0 0 20 22" fill="none" xmlns="http://www.w3.org/2000/svg">
<path d="M18.3329 2.11956H16.6663V1.41304C16.6663 1.03828 16.5258 0.678866 16.2758 0.41387C16.0258 0.148873 15.6866 0 15.333 0C14.9794 0 14.6403 0.148873 14.3902 0.41387C14.1402 0.678866 13.9997 1.03828 13.9997 1.41304V2.11956H11.3331V1.41304C11.3331 1.03828 11.1926 0.678866 10.9426 0.41387C10.6925 0.148873 10.3534 0 9.99979 0C9.64617 0 9.30704 0.148873 9.057 0.41387C8.80696 0.678866 8.66648 1.03828 8.66648 1.41304V2.11956H5.99987V1.41304C5.99987 1.03828 5.8594 0.678866 5.60936 0.41387C5.35931 0.148873 5.02018 0 4.66657 0C4.31295 0 3.97382 0.148873 3.72378 0.41387C3.47374 0.678866 3.33326 1.03828 3.33326 1.41304V2.11956H1.66663C1.22461 2.11956 0.800699 2.30565 0.488145 2.6369C0.175591 2.96814 0 3.41741 0 3.88586V18.0163C0 18.4847 0.175591 18.934 0.488145 19.2652C0.800699 19.5965 1.22461 19.7826 1.66663 19.7826H10.9998C11.0882 19.7826 11.173 19.7453 11.2355 19.6791C11.298 19.6128 11.3331 19.523 11.3331 19.4293C11.3331 19.3356 11.298 19.2457 11.2355 19.1795C11.173 19.1133 11.0882 19.076 10.9998 19.076H1.66663C1.40166 19.0752 1.14778 18.9633 0.960414 18.7647C0.773053 18.5661 0.667444 18.2971 0.666653 18.0163V7.0652H19.3329V13.0706C19.3329 13.1643 19.368 13.2542 19.4306 13.3204C19.4931 13.3867 19.5778 13.4239 19.6663 13.4239C19.7547 13.4239 19.8394 13.3867 19.9019 13.3204C19.9645 13.2542 19.9996 13.1643 19.9996 13.0706V3.88586C19.9996 3.41741 19.824 2.96814 19.5114 2.6369C19.1989 2.30565 18.775 2.11956 18.3329 2.11956ZM14.6664 1.41304C14.6664 1.22566 14.7366 1.04595 14.8616 0.913455C14.9866 0.780956 15.1562 0.70652 15.333 0.70652C15.5098 0.70652 15.6794 0.780956 15.8044 0.913455C15.9294 1.04595 15.9997 1.22566 15.9997 1.41304V3.5326C15.9997 3.71998 15.9294 3.89969 15.8044 4.03218C15.6794 4.16468 15.5098 4.23912 15.333 4.23912C15.1562 4.23912 14.9866 4.16468 14.8616 4.03218C14.7366 3.89969 14.6664 3.71998 14.6664 3.5326V1.41304ZM9.33314 1.41304C9.33314 1.22566 9.40337 1.04595 9.52839 0.913455C9.65342 0.780956 9.82298 0.70652 9.99979 0.70652C10.1766 0.70652 10.3462 0.780956 10.4712 0.913455C10.5962 1.04595 10.6664 1.22566 10.6664 1.41304V3.5326C10.6664 3.71998 10.5962 3.89969 10.4712 4.03218C10.3462 4.16468 10.1766 4.23912 9.99979 4.23912C9.82298 4.23912 9.65342 4.16468 9.52839 4.03218C9.40337 3.89969 9.33314 3.71998 9.33314 3.5326V1.41304ZM3.99992 1.41304C3.99992 1.22566 4.07015 1.04595 4.19517 0.913455C4.3202 0.780956 4.48976 0.70652 4.66657 0.70652C4.84338 0.70652 5.01294 0.780956 5.13796 0.913455C5.26298 1.04595 5.33322 1.22566 5.33322 1.41304V3.5326C5.33322 3.71998 5.26298 3.89969 5.13796 4.03218C5.01294 4.16468 4.84338 4.23912 4.66657 4.23912C4.48976 4.23912 4.3202 4.16468 4.19517 4.03218C4.07015 3.89969 3.99992 3.71998 3.99992 3.5326V1.41304ZM19.3329 6.35868H0.666653V3.88586C0.667444 3.60505 0.773053 3.33597 0.960414 3.13741C1.14778 2.93884 1.40166 2.82692 1.66663 2.82608H3.33326V3.5326C3.33326 3.90736 3.47374 4.26677 3.72378 4.53177C3.97382 4.79676 4.31295 4.94564 4.66657 4.94564C5.02018 4.94564 5.35931 4.79676 5.60936 4.53177C5.8594 4.26677 5.99987 3.90736 5.99987 3.5326V2.82608H8.66648V3.5326C8.66648 3.90736 8.80696 4.26677 9.057 4.53177C9.30704 4.79676 9.64617 4.94564 9.99979 4.94564C10.3534 4.94564 10.6925 4.79676 10.9426 4.53177C11.1926 4.26677 11.3331 3.90736 11.3331 3.5326V2.82608H13.9997V3.5326C13.9997 3.90736 14.1402 4.26677 14.3902 4.53177C14.6403 4.79676 14.9794 4.94564 15.333 4.94564C15.6866 4.94564 16.0258 4.79676 16.2758 4.53177C16.5258 4.26677 16.6663 3.90736 16.6663 3.5326V2.82608H18.3329C18.5979 2.82692 18.8518 2.93884 19.0392 3.13741C19.2265 3.33597 19.3321 3.60505 19.3329 3.88586V6.35868Z" fill="white"/>
<path d="M9.3336 9.53806C9.3336 9.35068 9.26337 9.17098 9.13835 9.03848C9.01332 8.90598 8.84376 8.83154 8.66695 8.83154H7.33364C7.15684 8.83154 6.98727 8.90598 6.86225 9.03848C6.73723 9.17098 6.66699 9.35068 6.66699 9.53806V10.5978C6.66699 10.7852 6.73723 10.9649 6.86225 11.0974C6.98727 11.2299 7.15684 11.3044 7.33364 11.3044H8.66695C8.84376 11.3044 9.01332 11.2299 9.13835 11.0974C9.26337 10.9649 9.3336 10.7852 9.3336 10.5978V9.53806ZM7.33364 10.5978V9.53806H8.66695V10.5978H7.33364Z" fill="white"/>
<path d="M5.3336 9.53806C5.3336 9.35068 5.26337 9.17098 5.13834 9.03848C5.01332 8.90598 4.84376 8.83154 4.66695 8.83154H3.33364C3.15684 8.83154 2.98727 8.90598 2.86225 9.03848C2.73723 9.17098 2.66699 9.35068 2.66699 9.53806V10.5978C2.66699 10.7852 2.73723 10.9649 2.86225 11.0974C2.98727 11.2299 3.15684 11.3044 3.33364 11.3044H4.66695C4.84376 11.3044 5.01332 11.2299 5.13834 11.0974C5.26337 10.9649 5.3336 10.7852 5.3336 10.5978V9.53806ZM3.33364 10.5978V9.53806H4.66695V10.5978H3.33364Z" fill="white"/>
<path d="M16.6665 11.3044C16.8433 11.3044 17.0128 11.2299 17.1379 11.0974C17.2629 10.9649 17.3331 10.7852 17.3331 10.5978V9.53806C17.3331 9.35068 17.2629 9.17098 17.1379 9.03848C17.0128 8.90598 16.8433 8.83154 16.6665 8.83154H15.3332C15.1563 8.83154 14.9868 8.90598 14.8618 9.03848C14.7367 9.17098 14.6665 9.35068 14.6665 9.53806V10.5978C14.6665 10.7852 14.7367 10.9649 14.8618 11.0974C14.9868 11.2299 15.1563 11.3044 15.3332 11.3044H16.6665ZM15.3332 9.53806H16.6665V10.5978H15.3332V9.53806Z" fill="white"/>
<path d="M9.3336 12.7173C9.3336 12.5299 9.26337 12.3502 9.13835 12.2177C9.01332 12.0852 8.84376 12.0107 8.66695 12.0107H7.33364C7.15684 12.0107 6.98727 12.0852 6.86225 12.2177C6.73723 12.3502 6.66699 12.5299 6.66699 12.7173V13.777C6.66699 13.9644 6.73723 14.1441 6.86225 14.2766C6.98727 14.4091 7.15684 14.4836 7.33364 14.4836H8.66695C8.84376 14.4836 9.01332 14.4091 9.13835 14.2766C9.26337 14.1441 9.3336 13.9644 9.3336 13.777V12.7173ZM7.33364 13.777V12.7173H8.66695V13.777H7.33364Z" fill="white"/>
<path d="M5.3336 12.7173C5.3336 12.5299 5.26337 12.3502 5.13834 12.2177C5.01332 12.0852 4.84376 12.0107 4.66695 12.0107H3.33364C3.15684 12.0107 2.98727 12.0852 2.86225 12.2177C2.73723 12.3502 2.66699 12.5299 2.66699 12.7173V13.777C2.66699 13.9644 2.73723 14.1441 2.86225 14.2766C2.98727 14.4091 3.15684 14.4836 3.33364 14.4836H4.66695C4.84376 14.4836 5.01332 14.4091 5.13834 14.2766C5.26337 14.1441 5.3336 13.9644 5.3336 13.777V12.7173ZM3.33364 13.777V12.7173H4.66695V13.777H3.33364Z" fill="white"/>
<path d="M8.66695 15.1904H7.33364C7.15684 15.1904 6.98727 15.2649 6.86225 15.3974C6.73723 15.5299 6.66699 15.7096 6.66699 15.8969V16.9567C6.66699 17.1441 6.73723 17.3238 6.86225 17.4563C6.98727 17.5888 7.15684 17.6632 7.33364 17.6632H8.66695C8.84376 17.6632 9.01332 17.5888 9.13835 17.4563C9.26337 17.3238 9.3336 17.1441 9.3336 16.9567V15.8969C9.3336 15.7096 9.26337 15.5299 9.13835 15.3974C9.01332 15.2649 8.84376 15.1904 8.66695 15.1904ZM7.33364 16.9567V15.8969H8.66695V16.9567H7.33364Z" fill="white"/>
<path d="M11.3336 11.3044H12.667C12.8438 11.3044 13.0133 11.2299 13.1383 11.0974C13.2634 10.9649 13.3336 10.7852 13.3336 10.5978V9.53806C13.3336 9.35068 13.2634 9.17098 13.1383 9.03848C13.0133 8.90598 12.8438 8.83154 12.667 8.83154H11.3336C11.1568 8.83154 10.9873 8.90598 10.8622 9.03848C10.7372 9.17098 10.667 9.35068 10.667 9.53806V10.5978C10.667 10.7852 10.7372 10.9649 10.8622 11.0974C10.9873 11.2299 11.1568 11.3044 11.3336 11.3044ZM11.3336 9.53806H12.667V10.5978H11.3336V9.53806Z" fill="white"/>
<path d="M10.667 13.777C10.667 13.9644 10.7372 14.1441 10.8622 14.2766C10.9873 14.4091 11.1568 14.4836 11.3336 14.4836C11.422 14.4836 11.5068 14.4463 11.5693 14.3801C11.6319 14.3138 11.667 14.224 11.667 14.1303C11.667 14.0366 11.6319 13.9468 11.5693 13.8805C11.5068 13.8143 11.422 13.777 11.3336 13.777V12.7173H12.667C12.7554 12.7173 12.8401 12.68 12.9026 12.6138C12.9652 12.5475 13.0003 12.4577 13.0003 12.364C13.0003 12.2703 12.9652 12.1805 12.9026 12.1142C12.8401 12.048 12.7554 12.0107 12.667 12.0107H11.3336C11.1568 12.0107 10.9873 12.0852 10.8622 12.2177C10.7372 12.3502 10.667 12.5299 10.667 12.7173V13.777Z" fill="white"/>
<path d="M4.66695 15.1904H3.33364C3.15684 15.1904 2.98727 15.2649 2.86225 15.3974C2.73723 15.5299 2.66699 15.7096 2.66699 15.8969V16.9567C2.66699 17.1441 2.73723 17.3238 2.86225 17.4563C2.98727 17.5888 3.15684 17.6632 3.33364 17.6632H4.66695C4.84376 17.6632 5.01332 17.5888 5.13834 17.4563C5.26337 17.3238 5.3336 17.1441 5.3336 16.9567V15.8969C5.3336 15.7096 5.26337 15.5299 5.13834 15.3974C5.01332 15.2649 4.84376 15.1904 4.66695 15.1904ZM3.33364 16.9567V15.8969H4.66695V16.9567H3.33364Z" fill="white"/>
<path d="M15.6667 12.0107C14.8097 12.0107 13.9719 12.2801 13.2593 12.7847C12.5467 13.2893 11.9913 14.0065 11.6633 14.8457C11.3354 15.6848 11.2496 16.6082 11.4168 17.499C11.584 18.3899 11.9967 19.2082 12.6027 19.8504C13.2087 20.4927 13.9808 20.9301 14.8214 21.1073C15.6619 21.2844 16.5332 21.1935 17.325 20.8459C18.1168 20.4983 18.7936 19.9097 19.2697 19.1545C19.7458 18.3993 20 17.5114 20 16.6031C19.9987 15.3856 19.5417 14.2183 18.7293 13.3574C17.917 12.4964 16.8156 12.0121 15.6667 12.0107ZM15.6667 20.489C14.9416 20.489 14.2327 20.2611 13.6297 19.8341C13.0267 19.4071 12.5568 18.8002 12.2793 18.0902C12.0017 17.3801 11.9291 16.5988 12.0706 15.845C12.2121 15.0912 12.5613 14.3988 13.0741 13.8554C13.5868 13.312 14.2402 12.9419 14.9514 12.7919C15.6627 12.642 16.3999 12.7189 17.0699 13.0131C17.7399 13.3072 18.3125 13.8052 18.7154 14.4443C19.1183 15.0833 19.3333 15.8346 19.3333 16.6031C19.3322 17.6333 18.9455 18.621 18.2581 19.3495C17.5708 20.078 16.6388 20.4878 15.6667 20.489Z" fill="white"/>
<path d="M17.5926 15.1221L15 17.8698L13.8217 16.6206C13.7589 16.5563 13.6747 16.5207 13.5873 16.5215C13.4999 16.5223 13.4163 16.5594 13.3545 16.6249C13.2927 16.6904 13.2576 16.779 13.2568 16.8717C13.2561 16.9643 13.2897 17.0535 13.3504 17.1202L14.7644 18.619C14.8269 18.6853 14.9116 18.7225 15 18.7225C15.0884 18.7225 15.1732 18.6853 15.2357 18.619L18.064 15.6216C18.1247 15.555 18.1583 15.4658 18.1575 15.3731C18.1568 15.2805 18.1217 15.1919 18.0599 15.1264C17.9981 15.0609 17.9145 15.0238 17.8271 15.023C17.7397 15.0222 17.6555 15.0578 17.5926 15.1221Z" fill="white"/>
</svg>
