<svg width="27" height="23" viewBox="0 0 27 23" fill="none" xmlns="http://www.w3.org/2000/svg">
<path d="M16.2933 4.03856C17.5417 4.8213 18.4171 6.14586 18.5765 7.68337C19.0857 7.92126 19.6507 8.05807 20.2498 8.05807C22.437 8.05807 24.2097 6.28536 24.2097 4.09854C24.2097 1.91138 22.437 0.138672 20.2498 0.138672C18.0836 0.139346 16.3264 1.88038 16.2933 4.03856ZM13.6991 12.1463C15.8863 12.1463 17.659 10.3733 17.659 8.18644C17.659 5.99962 15.886 4.22692 13.6991 4.22692C11.5123 4.22692 9.7386 5.99996 9.7386 8.18678C9.7386 10.3736 11.5123 12.1463 13.6991 12.1463ZM15.3788 12.4162H12.0188C9.22306 12.4162 6.94863 14.691 6.94863 17.4867V21.5958L6.95908 21.6602L7.24212 21.7488C9.91011 22.5824 12.228 22.8604 14.1358 22.8604C17.8622 22.8604 20.0221 21.798 20.1551 21.7302L20.4197 21.5965H20.448V17.4867C20.449 14.691 18.1745 12.4162 15.3788 12.4162ZM21.9302 8.3283H18.5961C18.56 9.6623 17.9906 10.8635 17.0899 11.7275C19.5749 12.4664 21.3931 14.7708 21.3931 17.4927V18.759C24.6851 18.6384 26.5822 17.7054 26.7072 17.6427L26.9717 17.5086H27V13.3981C27 10.6027 24.7256 8.3283 21.9302 8.3283ZM6.75084 8.05874C7.5255 8.05874 8.24624 7.83264 8.8568 7.44751C9.05088 6.18158 9.7295 5.07536 10.6989 4.32194C10.703 4.24781 10.71 4.17435 10.71 4.09955C10.71 1.91239 8.93699 0.139683 6.75084 0.139683C4.56335 0.139683 2.79098 1.91239 2.79098 4.09955C2.79098 6.2857 4.56335 8.05874 6.75084 8.05874ZM10.307 11.7275C9.41075 10.8679 8.84332 9.67308 8.80187 8.34717C8.67821 8.33807 8.5559 8.3283 8.42988 8.3283H5.07012C2.27443 8.3283 0 10.6027 0 13.3981V17.5079L0.0104455 17.5712L0.293486 17.6605C2.43381 18.3287 4.34399 18.6367 6.00315 18.7337V17.4927C6.00382 14.7708 7.82134 12.4671 10.307 11.7275Z" fill="white"/>
</svg>
