<svg width="56" height="28" viewBox="0 0 56 28" fill="none" xmlns="http://www.w3.org/2000/svg">
<path d="M54.2738 27.977C54.2946 27.9728 54.3148 27.9673 54.3353 27.962C54.3527 27.9575 54.3703 27.9538 54.3874 27.9486C54.4073 27.9425 54.4268 27.935 54.4463 27.928C54.4635 27.9217 54.4809 27.9161 54.498 27.909C54.5164 27.9013 54.5341 27.8924 54.552 27.8839C54.5694 27.8756 54.5872 27.8679 54.6042 27.8587C54.6213 27.8495 54.6375 27.8392 54.6541 27.8293C54.6712 27.819 54.6884 27.8095 54.705 27.7983C54.7228 27.7865 54.7392 27.7734 54.7563 27.7606C54.7707 27.7499 54.7854 27.7398 54.7994 27.7283C54.8253 27.7071 54.8499 27.6844 54.8738 27.6611C54.8782 27.6569 54.8828 27.6534 54.8871 27.6491C54.8916 27.6446 54.8954 27.6397 54.8997 27.6351C54.9227 27.6114 54.9451 27.5871 54.9662 27.5616C54.9785 27.5466 54.9892 27.5309 55.0007 27.5154C55.0125 27.4995 55.0249 27.484 55.036 27.4674C55.0478 27.4496 55.0582 27.4313 55.069 27.4131C55.0781 27.3977 55.0879 27.3827 55.0963 27.3669C55.1062 27.3485 55.1145 27.3295 55.1233 27.3108C55.1311 27.2942 55.1395 27.2778 55.1466 27.2607C55.1543 27.2423 55.1604 27.2236 55.1671 27.2049C55.1736 27.1867 55.1807 27.1687 55.1862 27.1502C55.192 27.1313 55.1961 27.1122 55.2009 27.093C55.2056 27.0741 55.211 27.0556 55.2147 27.0366C55.2191 27.0141 55.2219 26.9914 55.2251 26.9687C55.2273 26.9528 55.2303 26.9369 55.2319 26.9208C55.2359 26.881 55.238 26.8413 55.238 26.8013V1.19786C55.238 0.536161 54.7018 0 54.0401 0H16.3076C16.2971 0 16.2869 0.00127684 16.2763 0.00159627C16.2535 0.00223512 16.2308 0.00319392 16.2081 0.00511049C16.1901 0.00654792 16.1722 0.00862461 16.1543 0.0110203C16.1339 0.0135758 16.1136 0.0166101 16.0933 0.0202835C16.0743 0.0236375 16.0554 0.0276301 16.0367 0.0319424C16.0177 0.0364144 15.9987 0.0412063 15.9799 0.0466366C15.9612 0.0519071 15.9428 0.057656 15.9246 0.0637251C15.9059 0.0701137 15.8873 0.0768227 15.8689 0.0841695C15.8515 0.0910373 15.8344 0.0980638 15.8175 0.10573C15.7986 0.114195 15.7799 0.1233 15.7614 0.132723C15.7456 0.140868 15.7301 0.149173 15.7148 0.157957C15.6962 0.168498 15.678 0.179678 15.66 0.191178C15.6451 0.200761 15.6306 0.210663 15.6162 0.220725C15.5993 0.232703 15.5825 0.245161 15.5661 0.258258C15.5511 0.270236 15.5364 0.282535 15.5218 0.295152C15.5075 0.30777 15.4932 0.320386 15.4793 0.333802C15.4635 0.348975 15.4484 0.364787 15.4333 0.380758C15.4258 0.388744 15.4179 0.395772 15.4107 0.403917C15.4064 0.408709 15.403 0.41398 15.3988 0.418771C15.3838 0.43618 15.3698 0.454387 15.3557 0.472754C15.3455 0.48617 15.335 0.499586 15.3254 0.513321C15.3129 0.531209 15.3014 0.549577 15.2899 0.568104C15.2805 0.583277 15.2708 0.598289 15.2621 0.613781C15.2521 0.631669 15.2433 0.650037 15.2342 0.668404C15.2259 0.685174 15.2173 0.701944 15.2097 0.719034C15.2019 0.737082 15.1951 0.755768 15.1882 0.774136C15.1813 0.792183 15.1743 0.810071 15.1684 0.828278C15.1625 0.846645 15.1577 0.865332 15.1526 0.884018C15.1475 0.903184 15.142 0.92219 15.1377 0.941516C15.1337 0.959563 15.131 0.977931 15.1278 0.996138C15.1243 1.0169 15.1208 1.03766 15.1182 1.05843C15.1162 1.07568 15.1152 1.09324 15.1139 1.11081C15.1123 1.13317 15.1109 1.15553 15.1106 1.17805C15.1104 1.1846 15.1096 1.19099 15.1096 1.19754V8.58465C15.1096 9.24634 15.6458 9.7825 16.3075 9.7825C16.9692 9.7825 17.5053 9.24634 17.5053 8.58465V3.8579L28.1552 13.287C28.0997 13.3261 28.0461 13.3694 27.9963 13.419L17.5052 23.9102V16.0382C17.5052 15.3765 16.969 14.8403 16.3073 14.8403C15.6456 14.8403 15.1094 15.3765 15.1094 16.0382V17.5018H8.92051C8.25882 17.5018 7.72266 18.038 7.72266 18.6997C7.72266 19.3614 8.25882 19.8975 8.92051 19.8975H15.1094V26.8021C15.1094 27.4638 15.6456 28 16.3073 28H54.0398C54.0793 28 54.1187 27.9979 54.158 27.9941C54.1764 27.9923 54.1941 27.9888 54.2121 27.9863C54.2329 27.9834 54.2534 27.981 54.2738 27.977ZM52.8421 23.9104L42.3508 13.4192C42.3441 13.4125 42.3369 13.4069 42.33 13.4005L50.2172 6.70896C50.7216 6.28093 50.7836 5.52516 50.3555 5.02062C49.9278 4.5164 49.172 4.45411 48.6672 4.88231L35.1903 16.3163L19.4674 2.39587H52.8421V23.9104ZM29.6906 15.1135C29.776 15.028 29.8453 14.9328 29.8995 14.8316L34.3796 18.7981C34.6061 18.9985 34.8897 19.0991 35.1737 19.0991C35.4494 19.0991 35.7249 19.0044 35.9488 18.8147L40.5146 14.941C40.5561 15.0016 40.6029 15.0596 40.6567 15.1135L51.1479 25.6046H19.1994L29.6906 15.1135Z" fill="white"/>
<path d="M1.19786 13.6418H21.4284C22.0901 13.6418 22.6263 13.1056 22.6263 12.444C22.6263 11.7823 22.0901 11.2461 21.4284 11.2461H1.19786C0.536161 11.2461 0 11.7823 0 12.444C0 13.1056 0.536161 13.6418 1.19786 13.6418Z" fill="white"/>
<path d="M3.29551 7.04124H12.3793C13.041 7.04124 13.5771 6.50507 13.5771 5.84337C13.5771 5.18167 13.041 4.64551 12.3793 4.64551H3.29551C2.63382 4.64551 2.09766 5.18167 2.09766 5.84337C2.09766 6.50507 2.63382 7.04124 3.29551 7.04124Z" fill="white"/>
<path d="M9.98215 22.5596H1.19786C0.536161 22.5596 0 23.0957 0 23.7574C0 24.4191 0.536161 24.9553 1.19786 24.9553H9.98215C10.6438 24.9553 11.18 24.4191 11.18 23.7574C11.18 23.0957 10.6438 22.5596 9.98215 22.5596Z" fill="white"/>
</svg>
