<svg width="49" height="49" viewBox="0 0 49 49" fill="none" xmlns="http://www.w3.org/2000/svg">
<path d="M41.8244 7.17593C37.197 2.54849 31.0438 0 24.5 0C17.9562 0 11.803 2.54849 7.17556 7.17593C2.54812 11.8034 0 17.9557 0 24.5C0 31.0443 2.54812 37.1966 7.17556 41.8241C11.803 46.4515 17.9562 49 24.5 49C31.0438 49 37.197 46.4515 41.8244 41.8241C46.4519 37.1966 49 31.0443 49 24.5C49 17.9557 46.4519 11.8034 41.8244 7.17593ZM24.5 44.8815C13.2619 44.8815 4.11796 35.7385 4.11796 24.5C4.11796 13.2615 13.2619 4.11845 24.5 4.11845C35.7382 4.11845 44.882 13.2615 44.882 24.5C44.882 35.7385 35.7382 44.8815 24.5 44.8815Z" fill="white"/>
<path d="M17.0023 37.5102C16.2126 37.0545 15.2018 37.3243 14.7445 38.1142C14.289 38.9049 14.56 39.9158 15.3498 40.3716C15.6097 40.5222 15.8944 40.5939 16.175 40.5939C16.7456 40.5939 17.3005 40.2975 17.607 39.7677C18.0631 38.9767 17.7928 37.9661 17.0023 37.5102Z" fill="white"/>
<path d="M16.1461 11.7304C16.4276 11.7304 16.7135 11.6586 16.9747 11.5072C17.7632 11.049 18.0322 10.0372 17.5738 9.24851C17.1146 8.45888 16.1041 8.19097 15.3152 8.649C14.5255 9.10715 14.2577 10.1179 14.716 10.9075C15.0226 11.4354 15.5762 11.7304 16.1461 11.7304Z" fill="white"/>
<path d="M9.2297 17.6175C9.48952 17.7666 9.77336 17.8385 10.0536 17.8385C10.6246 17.8385 11.1808 17.5423 11.4862 17.0112C11.942 16.2216 11.6706 15.2109 10.8809 14.755C10.0901 14.2981 9.07952 14.5693 8.62357 15.3599C8.16763 16.1509 8.43909 17.1606 9.2297 17.6175Z" fill="white"/>
<path d="M24.4688 9.48781C24.47 9.48781 24.47 9.48781 24.4709 9.48781C25.3838 9.48548 26.1221 8.74484 26.1213 7.8321C26.1188 6.91923 25.3785 6.18092 24.4655 6.18313C23.5525 6.18423 22.8143 6.92499 22.8164 7.83761C22.8175 8.74938 23.5569 9.48781 24.4688 9.48781Z" fill="white"/>
<path d="M9.24584 31.4181C8.45609 31.875 8.18708 32.8857 8.64547 33.6757C8.95209 34.2041 9.50701 34.4996 10.0769 34.4996C10.3583 34.4996 10.643 34.4278 10.9041 34.2763C11.6938 33.8195 11.9625 32.8074 11.5044 32.0187C11.0463 31.2291 10.0355 30.9598 9.24584 31.4181Z" fill="white"/>
<path d="M9.48815 24.5175C9.48693 23.6045 8.74629 22.8663 7.83367 22.8673C6.92092 22.8684 6.18249 23.609 6.18359 24.5206C6.18482 25.4335 6.92423 26.1718 7.836 26.1718H7.83686C8.74997 26.1707 9.48938 25.43 9.48815 24.5175Z" fill="white"/>
<path d="M24.5066 39.5124C23.5952 39.5136 22.8555 40.2531 22.8555 41.1657C22.8567 42.0786 23.5965 42.8181 24.5091 42.8169C25.4217 42.8169 26.1615 42.0761 26.1603 41.1634C26.1604 40.2518 25.42 39.5124 24.5066 39.5124Z" fill="white"/>
<path d="M39.7608 31.4012C38.9714 30.9444 37.9609 31.2142 37.5035 32.004C37.0467 32.7936 37.3167 33.8044 38.1063 34.2614C38.3675 34.412 38.6522 34.4835 38.9323 34.4835C39.5033 34.4835 40.0582 34.1885 40.3636 33.6585C40.8208 32.8688 40.5506 31.858 39.7608 31.4012Z" fill="white"/>
<path d="M41.1605 22.8089C40.2478 22.8112 39.5093 23.5531 39.5117 24.4657C39.5117 24.4749 39.5117 24.4841 39.5117 24.4919C39.5117 24.4955 39.5117 24.4977 39.5117 24.5C39.5117 25.4128 40.251 26.1523 41.1638 26.1523C42.0768 26.1523 42.8162 25.4128 42.8162 24.5C42.8162 24.4943 42.8162 24.4874 42.8162 24.4807C42.8162 24.4738 42.8162 24.4657 42.8162 24.4579C42.8141 23.5451 42.0731 22.8078 41.1605 22.8089Z" fill="white"/>
<path d="M31.9798 11.4808C32.2394 11.6312 32.5233 11.7018 32.8035 11.7018C33.3744 11.7018 33.9306 11.4056 34.236 10.8745C34.6919 10.0835 34.4206 9.07291 33.6299 8.61709C32.8389 8.16237 31.828 8.43359 31.3734 9.22457C30.9178 10.0153 31.1889 11.0262 31.9798 11.4808Z" fill="white"/>
<path d="M32.0121 37.5025C31.2225 37.9593 30.9526 38.9699 31.4106 39.7598C31.7171 40.2883 32.2718 40.5847 32.8419 40.5847C33.1234 40.5847 33.4071 40.5129 33.6679 40.3617C34.4577 39.9048 34.7267 38.8939 34.2699 38.1039C33.8126 37.3142 32.8017 37.0442 32.0121 37.5025Z" fill="white"/>
<path d="M38.9156 17.7892C39.1984 17.7892 39.4831 17.7162 39.7451 17.5646C40.5339 17.1054 40.8018 16.0946 40.3425 15.3061C39.8844 14.5164 38.8724 14.2497 38.0839 14.7078C37.2951 15.1658 37.0273 16.1777 37.4856 16.9664C37.7922 17.494 38.3459 17.7892 38.9156 17.7892Z" fill="white"/>
<path d="M34.884 25.6583L26.2071 25.0665L25.341 12.3579C25.3111 11.9207 24.9476 11.5812 24.5091 11.5812C24.0708 11.5812 23.7077 11.9207 23.6776 12.3579L22.8268 24.836L21.4381 24.7413C21.2528 24.7285 21.0707 24.7933 20.9351 24.9201C20.7997 25.0468 20.7227 25.2242 20.7227 25.4099V27.244C20.7227 27.4298 20.7997 27.6069 20.9351 27.7336C21.0595 27.8498 21.2233 27.9142 21.3926 27.9142C21.4076 27.9142 21.4227 27.9137 21.4381 27.9127L22.6226 27.8318L22.5371 29.0824C22.5217 29.3129 22.6022 29.5392 22.7597 29.7078C22.9172 29.8766 23.1379 29.9724 23.3689 29.9724H25.6496C25.6506 29.9724 25.6517 29.9724 25.6522 29.9724C26.1123 29.9724 26.4854 29.5993 26.4854 29.1389C26.4854 29.0984 26.3787 27.5752 26.3787 27.5752L34.8844 26.9953C35.2361 26.9713 35.5093 26.6791 35.5093 26.3267C35.5085 25.9745 35.2357 25.6823 34.884 25.6583Z" fill="white"/>
</svg>
