<svg width="50" height="50" viewBox="0 0 50 50" fill="none" xmlns="http://www.w3.org/2000/svg">
<path d="M22.0703 20.3193V29.6807L29.5604 25L22.0703 20.3193Z" fill="white"/>
<path d="M7.32422 44.043H42.6758C46.7142 44.043 50 40.7571 50 36.7188V13.2812C50 9.24287 46.7142 5.95703 42.6758 5.95703H7.32422C3.28584 5.95703 0 9.24287 0 13.2812V36.7188C0 40.7571 3.28584 44.043 7.32422 44.043ZM19.1406 17.6758C19.1406 17.1437 19.4296 16.6529 19.8959 16.394C20.3565 16.1365 20.9302 16.1494 21.3822 16.4341L33.101 23.7583C33.5287 24.0258 33.7891 24.495 33.7891 25C33.7891 25.505 33.5287 25.9742 33.101 26.2417L21.3822 33.5659C21.1447 33.7146 20.8759 33.7891 20.6055 33.7891C20.3608 33.7891 20.1162 33.7275 19.8959 33.606C19.4296 33.3471 19.1406 32.8563 19.1406 32.3242V17.6758Z" fill="white"/>
</svg>
