<svg width="30" height="24" viewBox="0 0 30 24" fill="none" xmlns="http://www.w3.org/2000/svg">
<path d="M4.39453 23.4258H25.6055C28.0285 23.4258 30 21.4543 30 19.0312V4.96875C30 2.54572 28.0285 0.574219 25.6055 0.574219H4.39453C1.9715 0.574219 0 2.54572 0 4.96875V19.0312C0 21.4543 1.9715 23.4258 4.39453 23.4258ZM11.4844 7.60547C11.4844 7.28619 11.6578 6.99176 11.9375 6.83643C12.2139 6.68191 12.5581 6.68965 12.8293 6.86045L19.8606 11.255C20.1172 11.4155 20.2734 11.697 20.2734 12C20.2734 12.303 20.1172 12.5845 19.8606 12.745L12.8293 17.1396C12.6868 17.2288 12.5255 17.2734 12.3633 17.2734C12.2165 17.2734 12.0697 17.2365 11.9375 17.1636C11.6578 17.0082 11.4844 16.7138 11.4844 16.3945V7.60547Z" fill="white"/>
</svg>
