<svg width="31" height="31" viewBox="0 0 31 31" fill="none" xmlns="http://www.w3.org/2000/svg">
<path d="M15.5002 30.3739C7.28051 30.3739 0.626465 23.7199 0.626465 15.5002C0.626465 7.28051 7.28051 0.626465 15.5002 0.626465C23.7199 0.626465 30.3739 7.28051 30.3739 15.5002C30.3739 23.7199 23.7199 30.3739 15.5002 30.3739Z" stroke="black" stroke-width="1.5" stroke-miterlimit="10"/>
<path d="M13.23 24.5026H16.831V15.4218H19.3361L19.5709 12.3688H16.7527C16.7527 12.3688 16.7527 11.1945 16.7527 10.6465C16.7527 9.942 16.9093 9.62887 17.6139 9.62887C18.1618 9.62887 19.5709 9.62887 19.5709 9.62887V6.49756C19.5709 6.49756 17.5356 6.49756 17.0659 6.49756C14.4043 6.49756 13.1517 7.6718 13.1517 9.942C13.1517 11.8991 13.1517 12.3688 13.1517 12.3688H11.2729V15.4218H13.1517V24.5026H13.23Z" fill="black"/>
</svg>
