<svg width="32" height="32" viewBox="0 0 32 32" fill="none" xmlns="http://www.w3.org/2000/svg">
<path d="M15.8737 30.7475C7.65404 30.7475 1 24.0934 1 15.8737C1 7.65404 7.65404 1 15.8737 1C24.0934 1 30.7475 7.65404 30.7475 15.8737C30.7475 24.0934 24.0934 30.7475 15.8737 30.7475Z" fill="black" stroke="black" stroke-width="1.5" stroke-miterlimit="10"/>
<path d="M13.6036 24.8763H17.2046V15.7955H19.7096L19.9445 12.7424H17.1263C17.1263 12.7424 17.1263 11.5682 17.1263 11.0202C17.1263 10.3157 17.2828 10.0025 17.9874 10.0025C18.5354 10.0025 19.9445 10.0025 19.9445 10.0025V6.87122C19.9445 6.87122 17.9091 6.87122 17.4394 6.87122C14.7778 6.87122 13.5253 8.04546 13.5253 10.3157C13.5253 12.2727 13.5253 12.7424 13.5253 12.7424H11.6465V15.7955H13.5253V24.8763H13.6036Z" fill="white"/>
</svg>
