<svg width="15" height="13" viewBox="0 0 15 13" fill="none" xmlns="http://www.w3.org/2000/svg">
<path d="M9.05185 2.20453C9.74541 2.64699 10.2317 3.39574 10.3203 4.26487C10.6031 4.39934 10.9171 4.47667 11.2499 4.47667C12.465 4.47667 13.4498 3.4746 13.4498 2.23843C13.4498 1.00208 12.465 0 11.2499 0C10.0464 0.000380945 9.0702 0.984552 9.05185 2.20453ZM7.61063 6.78767C8.82572 6.78767 9.81056 5.78541 9.81056 4.54924C9.81056 3.31308 8.82553 2.311 7.61063 2.311C6.39573 2.311 5.41033 3.31327 5.41033 4.54943C5.41033 5.7856 6.39573 6.78767 7.61063 6.78767ZM8.5438 6.94024H6.67709C5.12392 6.94024 3.86035 8.22612 3.86035 9.80647V12.1293L3.86615 12.1657L4.0234 12.2158C5.50562 12.687 6.79334 12.8441 7.85324 12.8441C9.92344 12.8441 11.1234 12.2436 11.1973 12.2053L11.3443 12.1297H11.36V9.80647C11.3605 8.22612 10.097 6.94024 8.5438 6.94024ZM12.1835 4.62943H10.3311C10.3111 5.38351 9.99476 6.06254 9.49438 6.55092C10.875 6.96862 11.8851 8.27126 11.8851 9.8099V10.5257C13.714 10.4575 14.7679 9.93009 14.8373 9.89466L14.9843 9.81885H15V7.49528C15 5.91512 13.7364 4.62943 12.1835 4.62943ZM3.75047 4.47705C4.18083 4.47705 4.58124 4.34925 4.92044 4.13154C5.02827 3.41593 5.40528 2.79061 5.94384 2.36471C5.94609 2.32281 5.95002 2.28129 5.95002 2.239C5.95002 1.00265 4.96499 0.000571376 3.75047 0.000571376C2.53519 0.000571376 1.55054 1.00265 1.55054 2.239C1.55054 3.47479 2.53519 4.47705 3.75047 4.47705ZM5.72613 6.55092C5.22819 6.06502 4.91295 5.38961 4.88993 4.6401C4.82123 4.63495 4.75328 4.62943 4.68326 4.62943H2.81674C1.26357 4.62943 0 5.91512 0 7.49528V9.81847L0.00580307 9.85428L0.163048 9.90475C1.35212 10.2825 2.41333 10.4566 3.33508 10.5114V9.8099C3.33545 8.27126 4.34519 6.969 5.72613 6.55092Z" fill="white"/>
</svg>
