<svg width="25" height="22" viewBox="0 0 25 22" fill="none" xmlns="http://www.w3.org/2000/svg">
<path d="M15.0864 3.70642C16.2424 4.45033 17.0529 5.70919 17.2005 7.17043C17.6719 7.39652 18.1951 7.52653 18.7498 7.52653C20.775 7.52653 22.4164 5.84176 22.4164 3.76343C22.4164 1.68477 20.775 0 18.7498 0C16.744 0.000640474 15.117 1.65531 15.0864 3.70642ZM12.6844 11.412C14.7095 11.412 16.3509 9.72688 16.3509 7.64854C16.3509 5.5702 14.7092 3.88544 12.6844 3.88544C10.6596 3.88544 9.01722 5.57052 9.01722 7.64886C9.01722 9.7272 10.6596 11.412 12.6844 11.412ZM14.2397 11.6685H11.1285C8.53987 11.6685 6.43392 13.8304 6.43392 16.4874V20.3927L6.44359 20.4539L6.70567 20.5381C9.17603 21.3303 11.3222 21.5945 13.0887 21.5945C16.5391 21.5945 18.5389 20.5848 18.6622 20.5205L18.9071 20.3933H18.9333V16.4874C18.9342 13.8304 16.8283 11.6685 14.2397 11.6685ZM20.3058 7.78336H17.2186C17.1852 9.05118 16.6579 10.1928 15.824 11.0139C18.1249 11.7162 19.8084 13.9063 19.8084 16.4932V17.6966C22.8566 17.582 24.6131 16.6952 24.7289 16.6357L24.9738 16.5082H25V12.6016C25 9.94496 22.894 7.78336 20.3058 7.78336ZM6.25078 7.52717C6.96805 7.52717 7.63541 7.31229 8.20074 6.94626C8.38044 5.74313 9.0088 4.69179 9.9064 3.97574C9.91015 3.90529 9.9167 3.83548 9.9167 3.76439C9.9167 1.68573 8.27499 0.000960641 6.25078 0.000960641C4.22532 0.000960641 2.58424 1.68573 2.58424 3.76439C2.58424 5.84208 4.22532 7.52717 6.25078 7.52717ZM9.54356 11.0139C8.71365 10.197 8.18826 9.06143 8.14988 7.80129C8.03538 7.79265 7.92213 7.78336 7.80544 7.78336H4.69456C2.10595 7.78336 0 9.94496 0 12.6016V16.5076L0.00967178 16.5678L0.271746 16.6526C2.25353 17.2877 4.02221 17.5804 5.55847 17.6726V16.4932C5.55909 13.9063 7.24198 11.7168 9.54356 11.0139Z" fill="white"/>
</svg>
