<svg width="31" height="31" viewBox="0 0 31 31" fill="none" xmlns="http://www.w3.org/2000/svg">
<path d="M15.5002 30.3739C7.28051 30.3739 0.626465 23.7199 0.626465 15.5002C0.626465 7.28051 7.28051 0.626465 15.5002 0.626465C23.7199 0.626465 30.3739 7.28051 30.3739 15.5002C30.3739 23.7199 23.7199 30.3739 15.5002 30.3739Z" stroke="black" stroke-width="1.5" stroke-miterlimit="10"/>
<path d="M15.5003 8.76765C17.6922 8.76765 17.9271 8.76765 18.7882 8.84593C19.571 8.84593 20.0407 9.0025 20.2756 9.15906C20.667 9.31563 20.9018 9.47219 21.2149 9.78532C21.5281 10.0985 21.6846 10.3333 21.8412 10.7247C21.9195 11.0378 22.0761 11.4293 22.1543 12.2121C22.1543 13.0732 22.2326 13.3081 22.2326 15.5C22.2326 17.6919 22.2326 17.9267 22.1543 18.7878C22.1543 19.5707 21.9978 20.0404 21.8412 20.2752C21.6846 20.6666 21.5281 20.9015 21.2149 21.2146C20.9018 21.5277 20.667 21.6843 20.2756 21.8409C19.9624 21.9192 19.571 22.0757 18.7882 22.154C17.9271 22.154 17.6922 22.2323 15.5003 22.2323C13.3084 22.2323 13.0735 22.2323 12.2124 22.154C11.4296 22.154 10.9599 21.9974 10.725 21.8409C10.3336 21.6843 10.0988 21.5277 9.78565 21.2146C9.47252 20.9015 9.31596 20.6666 9.15939 20.2752C9.08111 19.9621 8.92454 19.5707 8.84626 18.7878C8.76798 17.9267 8.76798 17.6919 8.76798 15.5C8.76798 13.3081 8.76798 13.0732 8.84626 12.2121C8.84626 11.4293 9.00283 10.9596 9.15939 10.7247C9.31596 10.3333 9.47252 10.0985 9.78565 9.78532C10.0988 9.47219 10.3336 9.31563 10.725 9.15906C11.0382 9.08078 11.4296 8.92421 12.2124 8.84593C13.0735 8.76765 13.3084 8.76765 15.5003 8.76765ZM15.5003 7.28027C13.3084 7.28027 12.9953 7.28027 12.1341 7.35856C11.273 7.43684 10.6468 7.51512 10.1771 7.74997C9.62909 7.98482 9.15939 8.21967 8.76798 8.68936C8.29828 9.15906 8.06343 9.62876 7.82858 10.0985C7.59374 10.6464 7.51545 11.1944 7.43717 12.0555C7.35889 12.9166 7.35889 13.2298 7.35889 15.4217C7.35889 17.6136 7.35889 17.9267 7.43717 18.7878C7.51545 19.649 7.59374 20.2752 7.82858 20.7449C8.06343 21.2929 8.29828 21.7626 8.76798 22.154C9.23767 22.6237 9.70737 22.8586 10.1771 23.0934C10.725 23.3283 11.273 23.4065 12.1341 23.4848C12.9953 23.5631 13.3084 23.5631 15.5003 23.5631C17.6922 23.5631 18.0054 23.5631 18.8665 23.4848C19.7276 23.4065 20.3538 23.3283 20.8235 23.0934C21.3715 22.8586 21.8412 22.6237 22.2326 22.154C22.7023 21.6843 22.9372 21.2146 23.172 20.7449C23.4069 20.1969 23.4851 19.649 23.5634 18.7878C23.6417 17.9267 23.6417 17.6136 23.6417 15.4217C23.6417 13.2298 23.6417 12.9166 23.5634 12.0555C23.4851 11.1944 23.4069 10.5682 23.172 10.0985C22.9372 9.55047 22.7023 9.08078 22.2326 8.68936C21.7629 8.21967 21.2932 7.98482 20.8235 7.74997C20.2756 7.51512 19.7276 7.43684 18.8665 7.35856C18.0054 7.35856 17.6922 7.28027 15.5003 7.28027Z" fill="black"/>
<path d="M15.5002 11.2725C13.1517 11.2725 11.2729 13.1512 11.2729 15.4997C11.2729 17.8482 13.1517 19.727 15.5002 19.727C17.8487 19.727 19.7275 17.8482 19.7275 15.4997C19.6492 13.1512 17.7704 11.2725 15.5002 11.2725ZM15.5002 18.2396C14.0128 18.2396 12.7603 16.9871 12.7603 15.4997C12.7603 14.0124 14.0128 12.7598 15.5002 12.7598C16.9876 12.7598 18.2401 14.0124 18.2401 15.4997C18.2401 16.9871 16.9876 18.2396 15.5002 18.2396Z" fill="black"/>
<path d="M20.8234 11.1163C20.8234 11.6643 20.3537 12.134 19.8058 12.134C19.2578 12.134 18.7881 11.6643 18.7881 11.1163C18.7881 10.5683 19.2578 10.0986 19.8058 10.0986C20.3537 10.1769 20.8234 10.5683 20.8234 11.1163Z" fill="black"/>
</svg>
