<svg width="32" height="32" viewBox="0 0 32 32" fill="none" xmlns="http://www.w3.org/2000/svg">
<path d="M15.8737 30.7475C7.65404 30.7475 1 24.0934 1 15.8737C1 7.65404 7.65404 1 15.8737 1C24.0934 1 30.7475 7.65404 30.7475 15.8737C30.7475 24.0934 24.0934 30.7475 15.8737 30.7475Z" fill="black" stroke="black" stroke-width="1.5" stroke-miterlimit="10"/>
<path d="M15.8738 9.14143C18.0658 9.14143 18.3006 9.14143 19.1617 9.21971C19.9445 9.21971 20.4142 9.37627 20.6491 9.53284C21.0405 9.68941 21.2754 9.84597 21.5885 10.1591C21.9016 10.4722 22.0582 10.7071 22.2147 11.0985C22.293 11.4116 22.4496 11.803 22.5279 12.5859C22.5279 13.447 22.6062 13.6818 22.6062 15.8737C22.6062 18.0657 22.6062 18.3005 22.5279 19.1616C22.5279 19.9445 22.3713 20.4142 22.2147 20.649C22.0582 21.0404 21.9016 21.2753 21.5885 21.5884C21.2754 21.9015 21.0405 22.0581 20.6491 22.2147C20.336 22.2929 19.9445 22.4495 19.1617 22.5278C18.3006 22.5278 18.0658 22.6061 15.8738 22.6061C13.6819 22.6061 13.4471 22.6061 12.586 22.5278C11.8031 22.5278 11.3334 22.3712 11.0986 22.2147C10.7072 22.0581 10.4723 21.9015 10.1592 21.5884C9.84606 21.2753 9.68949 21.0404 9.53293 20.649C9.45464 20.3359 9.29808 19.9445 9.2198 19.1616C9.14151 18.3005 9.14151 18.0657 9.14151 15.8737C9.14151 13.6818 9.14151 13.447 9.2198 12.5859C9.2198 11.803 9.37636 11.3333 9.53293 11.0985C9.68949 10.7071 9.84606 10.4722 10.1592 10.1591C10.4723 9.84597 10.7072 9.68941 11.0986 9.53284C11.4117 9.45456 11.8031 9.29799 12.586 9.21971C13.4471 9.14143 13.6819 9.14143 15.8738 9.14143ZM15.8738 7.65405C13.6819 7.65405 13.3688 7.65405 12.5077 7.73234C11.6466 7.81062 11.0203 7.8889 10.5506 8.12375C10.0026 8.3586 9.53293 8.59345 9.14151 9.06314C8.67182 9.53284 8.43697 10.0025 8.20212 10.4722C7.96727 11.0202 7.88899 11.5682 7.8107 12.4293C7.73242 13.2904 7.73242 13.6035 7.73242 15.7955C7.73242 17.9874 7.73242 18.3005 7.8107 19.1616C7.88899 20.0227 7.96727 20.649 8.20212 21.1187C8.43697 21.6667 8.67182 22.1364 9.14151 22.5278C9.61121 22.9975 10.0809 23.2323 10.5506 23.4672C11.0986 23.702 11.6466 23.7803 12.5077 23.8586C13.3688 23.9369 13.6819 23.9369 15.8738 23.9369C18.0658 23.9369 18.3789 23.9369 19.24 23.8586C20.1011 23.7803 20.7274 23.702 21.1971 23.4672C21.745 23.2323 22.2147 22.9975 22.6062 22.5278C23.0759 22.0581 23.3107 21.5884 23.5456 21.1187C23.7804 20.5707 23.8587 20.0227 23.937 19.1616C24.0153 18.3005 24.0153 17.9874 24.0153 15.7955C24.0153 13.6035 24.0153 13.2904 23.937 12.4293C23.8587 11.5682 23.7804 10.9419 23.5456 10.4722C23.3107 9.92425 23.0759 9.45456 22.6062 9.06314C22.1365 8.59345 21.6668 8.3586 21.1971 8.12375C20.6491 7.8889 20.1011 7.81062 19.24 7.73234C18.3789 7.73234 18.0658 7.65405 15.8738 7.65405Z" fill="white"/>
<path d="M15.8738 11.6465C13.5253 11.6465 11.6465 13.5253 11.6465 15.8738C11.6465 18.2222 13.5253 20.101 15.8738 20.101C18.2222 20.101 20.101 18.2222 20.101 15.8738C20.0227 13.5253 18.144 11.6465 15.8738 11.6465ZM15.8738 18.6137C14.3864 18.6137 13.1339 17.3611 13.1339 15.8738C13.1339 14.3864 14.3864 13.1339 15.8738 13.1339C17.3611 13.1339 18.6137 14.3864 18.6137 15.8738C18.6137 17.3611 17.3611 18.6137 15.8738 18.6137Z" fill="white"/>
<path d="M21.1975 11.4899C21.1975 12.0379 20.7278 12.5076 20.1798 12.5076C19.6318 12.5076 19.1621 12.0379 19.1621 11.4899C19.1621 10.9419 19.6318 10.4722 20.1798 10.4722C20.7278 10.5505 21.1975 10.9419 21.1975 11.4899Z" fill="white"/>
</svg>
