<svg width="22" height="22" viewBox="0 0 22 22" fill="none" xmlns="http://www.w3.org/2000/svg">
<path fill-rule="evenodd" clip-rule="evenodd" d="M10.9998 1.88766C5.96396 1.88766 1.88766 5.96396 1.88766 10.9998C1.88766 16.0355 5.96396 20.1118 10.9998 20.1118C16.0355 20.1118 20.1118 16.0355 20.1118 10.9998C20.1118 5.96396 16.0355 1.88766 10.9998 1.88766ZM0.919922 10.9998C0.919922 5.42949 5.42949 0.919922 10.9998 0.919922C16.57 0.919922 21.0796 5.42949 21.0796 10.9998C21.0796 16.57 16.57 21.0796 10.9998 21.0796C5.42949 21.0796 0.919922 16.57 0.919922 10.9998Z" fill="black"/>
<path d="M10.9996 6.65686C12.4137 6.65686 12.5653 6.65686 13.1208 6.70737C13.6259 6.70737 13.9289 6.80838 14.0804 6.90939C14.3329 7.0104 14.4844 7.11141 14.6865 7.31343C14.8885 7.51545 14.9895 7.66696 15.0905 7.91949C15.141 8.12151 15.242 8.37403 15.2925 8.87908C15.2925 9.43464 15.343 9.58615 15.343 11.0003C15.343 12.4144 15.343 12.566 15.2925 13.1215C15.2925 13.6266 15.1915 13.9296 15.0905 14.0811C14.9895 14.3336 14.8885 14.4851 14.6865 14.6872C14.4844 14.8892 14.3329 14.9902 14.0804 15.0912C13.8784 15.1417 13.6259 15.2427 13.1208 15.2932C12.5653 15.2932 12.4137 15.3437 10.9996 15.3437C9.58545 15.3437 9.43394 15.3437 8.87838 15.2932C8.37333 15.2932 8.0703 15.1922 7.91879 15.0912C7.66626 14.9902 7.51475 14.8892 7.31273 14.6872C7.11071 14.4851 7.0097 14.3336 6.90869 14.0811C6.85818 13.8791 6.75717 13.6266 6.70667 13.1215C6.65616 12.566 6.65616 12.4144 6.65616 11.0003C6.65616 9.58615 6.65616 9.43464 6.70667 8.87908C6.70667 8.37403 6.80768 8.071 6.90869 7.91949C7.0097 7.66696 7.11071 7.51545 7.31273 7.31343C7.51475 7.11141 7.66626 7.0104 7.91879 6.90939C8.12081 6.85888 8.37333 6.75787 8.87838 6.70737C9.43394 6.65686 9.58545 6.65686 10.9996 6.65686ZM10.9996 5.69727C9.58545 5.69727 9.38343 5.69727 8.82788 5.74777C8.27232 5.79828 7.86828 5.84878 7.56525 6.0003C7.21172 6.15181 6.90869 6.30333 6.65616 6.60636C6.35313 6.90939 6.20162 7.21242 6.0501 7.51545C5.89859 7.86898 5.84808 8.22252 5.79758 8.77807C5.74707 9.33363 5.74707 9.53565 5.74707 10.9498C5.74707 12.3639 5.74707 12.566 5.79758 13.1215C5.84808 13.6771 5.89859 14.0811 6.0501 14.3841C6.20162 14.7377 6.35313 15.0407 6.65616 15.2932C6.95919 15.5963 7.26222 15.7478 7.56525 15.8993C7.91879 16.0508 8.27232 16.1013 8.82788 16.1518C9.38343 16.2023 9.58545 16.2023 10.9996 16.2023C12.4137 16.2023 12.6158 16.2023 13.1713 16.1518C13.7269 16.1013 14.1309 16.0508 14.4339 15.8993C14.7875 15.7478 15.0905 15.5963 15.343 15.2932C15.6461 14.9902 15.7976 14.6872 15.9491 14.3841C16.1006 14.0306 16.1511 13.6771 16.2016 13.1215C16.2521 12.566 16.2521 12.3639 16.2521 10.9498C16.2521 9.53565 16.2521 9.33363 16.2016 8.77807C16.1511 8.22252 16.1006 7.81848 15.9491 7.51545C15.7976 7.16191 15.6461 6.85888 15.343 6.60636C15.04 6.30333 14.737 6.15181 14.4339 6.0003C14.0804 5.84878 13.7269 5.79828 13.1713 5.74777C12.6158 5.74777 12.4137 5.69727 10.9996 5.69727Z" fill="black"/>
<path d="M10.9997 8.27344C9.48458 8.27344 8.27246 9.48556 8.27246 11.0007C8.27246 12.5159 9.48458 13.728 10.9997 13.728C12.5149 13.728 13.727 12.5159 13.727 11.0007C13.6765 9.48556 12.4644 8.27344 10.9997 8.27344ZM10.9997 12.7684C10.0401 12.7684 9.23206 11.9603 9.23206 11.0007C9.23206 10.0411 10.0401 9.23303 10.9997 9.23303C11.9593 9.23303 12.7674 10.0411 12.7674 11.0007C12.7674 11.9603 11.9593 12.7684 10.9997 12.7684Z" fill="black"/>
<path d="M14.4342 8.17219C14.4342 8.52573 14.1312 8.82876 13.7777 8.82876C13.4241 8.82876 13.1211 8.52573 13.1211 8.17219C13.1211 7.81866 13.4241 7.51562 13.7777 7.51562C14.1312 7.56613 14.4342 7.81866 14.4342 8.17219Z" fill="black"/>
</svg>
