<svg width="33" height="17" viewBox="0 0 33 17" fill="none" xmlns="http://www.w3.org/2000/svg">
<path d="M32.4238 16.8506C32.4362 16.8481 32.4484 16.8448 32.4606 16.8417C32.471 16.839 32.4815 16.8368 32.4917 16.8336C32.5036 16.83 32.5153 16.8255 32.5269 16.8213C32.5372 16.8176 32.5476 16.8143 32.5578 16.81C32.5688 16.8054 32.5794 16.8001 32.5901 16.795C32.6005 16.79 32.6111 16.7855 32.6213 16.7799C32.6315 16.7745 32.6411 16.7683 32.651 16.7624C32.6612 16.7563 32.6716 16.7505 32.6815 16.7439C32.6921 16.7368 32.7019 16.729 32.7121 16.7213C32.7207 16.7149 32.7295 16.7089 32.7379 16.7021C32.7533 16.6894 32.768 16.6758 32.7823 16.6619C32.7849 16.6594 32.7877 16.6573 32.7903 16.6547C32.7929 16.6521 32.7952 16.6491 32.7978 16.6463C32.8115 16.6322 32.8249 16.6177 32.8375 16.6024C32.8448 16.5935 32.8512 16.5841 32.8581 16.5749C32.8652 16.5653 32.8726 16.5561 32.8792 16.5461C32.8863 16.5355 32.8925 16.5246 32.8989 16.5137C32.9044 16.5045 32.9102 16.4956 32.9153 16.4861C32.9212 16.4751 32.9261 16.4638 32.9314 16.4526C32.9361 16.4427 32.941 16.4329 32.9453 16.4227C32.9499 16.4117 32.9535 16.4005 32.9575 16.3894C32.9614 16.3785 32.9656 16.3677 32.969 16.3566C32.9724 16.3454 32.9749 16.3339 32.9778 16.3225C32.9805 16.3112 32.9838 16.3001 32.986 16.2888C32.9886 16.2753 32.9903 16.2618 32.9922 16.2482C32.9935 16.2387 32.9953 16.2292 32.9963 16.2196C32.9987 16.1958 32.9999 16.1721 32.9999 16.1482V0.851403C32.9999 0.456072 32.6796 0.135742 32.2842 0.135742H9.74091C9.73461 0.135742 9.72851 0.136505 9.72221 0.136696C9.70856 0.137078 9.69501 0.13765 9.68146 0.138795C9.67068 0.139654 9.66 0.140895 9.64931 0.142326C9.63709 0.143853 9.62498 0.145666 9.61286 0.147861C9.6015 0.149864 9.59024 0.15225 9.57908 0.154826C9.56772 0.157498 9.55637 0.160361 9.54511 0.163605C9.53394 0.166754 9.52297 0.170189 9.51209 0.173815C9.50093 0.177632 9.48976 0.18164 9.47879 0.186029C9.46839 0.190132 9.45818 0.19433 9.44806 0.198911C9.4368 0.203968 9.42564 0.209408 9.41457 0.215038C9.40512 0.219904 9.39587 0.224866 9.38671 0.230114C9.37564 0.236412 9.36476 0.243091 9.35398 0.249962C9.3451 0.255687 9.33642 0.261603 9.32783 0.267614C9.31772 0.274771 9.3077 0.282214 9.29787 0.290038C9.2889 0.297195 9.28012 0.304543 9.27144 0.312081C9.26285 0.319619 9.25436 0.327157 9.24606 0.335173C9.23661 0.344238 9.22754 0.353684 9.21858 0.363227C9.21409 0.367998 9.20932 0.372197 9.20503 0.377063C9.20245 0.379926 9.20044 0.383075 9.19796 0.385937C9.18899 0.396338 9.1806 0.407216 9.1722 0.41819C9.16609 0.426205 9.1598 0.43422 9.15407 0.442427C9.14663 0.453114 9.13976 0.464087 9.13289 0.475156C9.12726 0.484221 9.12144 0.493191 9.11628 0.502446C9.11027 0.513134 9.10502 0.524107 9.09958 0.535081C9.09462 0.5451 9.08947 0.55512 9.08498 0.56533C9.08031 0.576112 9.07621 0.587277 9.0721 0.59825C9.068 0.609033 9.0638 0.61972 9.06027 0.630598C9.05674 0.641571 9.05388 0.652735 9.05082 0.6639C9.04777 0.67535 9.04453 0.686706 9.04195 0.698252C9.03956 0.709034 9.03794 0.720008 9.03603 0.730886C9.03393 0.743291 9.03184 0.755695 9.03031 0.7681C9.02907 0.778406 9.0285 0.788902 9.02773 0.799398C9.02678 0.812757 9.02592 0.826117 9.02573 0.839571C9.02563 0.843483 9.02516 0.8473 9.02516 0.851213V5.26465C9.02516 5.65998 9.34549 5.98031 9.74082 5.98031C10.1361 5.98031 10.4565 5.65998 10.4565 5.26465V2.44065L16.8193 8.07405C16.7861 8.09742 16.7541 8.12328 16.7243 8.15296L10.4564 14.4209V9.71778C10.4564 9.32244 10.1361 9.00212 9.74072 9.00212C9.34539 9.00212 9.02506 9.32244 9.02506 9.71778V10.5922H5.32748C4.93215 10.5922 4.61182 10.9125 4.61182 11.3079C4.61182 11.7032 4.93215 12.0235 5.32748 12.0235H9.02506V16.1487C9.02506 16.544 9.34539 16.8644 9.74072 16.8644H32.284C32.3076 16.8644 32.3312 16.8631 32.3547 16.8608C32.3656 16.8598 32.3762 16.8577 32.387 16.8562C32.3994 16.8544 32.4116 16.853 32.4238 16.8506ZM31.5685 14.421L25.3004 8.15306C25.2964 8.14905 25.2921 8.14571 25.288 8.14189L30.0002 4.14402C30.3016 3.88829 30.3386 3.43675 30.0829 3.13532C29.8273 2.83407 29.3758 2.79686 29.0742 3.05268L21.0224 9.88391L11.6287 1.56716H31.5685V14.421ZM17.7366 9.16529C17.7876 9.11424 17.829 9.05736 17.8614 8.99687L20.538 11.3667C20.6734 11.4864 20.8428 11.5465 21.0125 11.5465C21.1772 11.5465 21.3418 11.4899 21.4756 11.3766L24.2034 9.06223C24.2282 9.09849 24.2561 9.13313 24.2883 9.16529L30.5563 15.4332H11.4686L17.7366 9.16529Z" fill="black"/>
<path d="M0.715661 8.2863H12.8024C13.1977 8.2863 13.5181 7.96597 13.5181 7.57064C13.5181 7.17531 13.1977 6.85498 12.8024 6.85498H0.715661C0.32033 6.85498 0 7.17531 0 7.57064C0 7.96597 0.32033 8.2863 0.715661 8.2863Z" fill="black"/>
<path d="M1.9681 4.34246H7.3952C7.79053 4.34246 8.11086 4.02213 8.11086 3.6268C8.11086 3.23146 7.79053 2.91113 7.3952 2.91113H1.9681C1.57277 2.91113 1.25244 3.23146 1.25244 3.6268C1.25244 4.02213 1.57277 4.34246 1.9681 4.34246Z" fill="black"/>
<path d="M5.96384 13.6143H0.715661C0.32033 13.6143 0 13.9346 0 14.3299C0 14.7253 0.32033 15.0456 0.715661 15.0456H5.96384C6.35918 15.0456 6.6795 14.7253 6.6795 14.3299C6.6795 13.9346 6.35918 13.6143 5.96384 13.6143Z" fill="black"/>
</svg>
