<svg width="26" height="14" viewBox="0 0 26 14" fill="none" xmlns="http://www.w3.org/2000/svg">
<path d="M25.5463 13.1693C25.5561 13.1673 25.5656 13.1647 25.5752 13.1622C25.5834 13.1601 25.5917 13.1584 25.5997 13.1559C25.6091 13.1531 25.6183 13.1495 25.6275 13.1462C25.6356 13.1433 25.6438 13.1407 25.6518 13.1373C25.6605 13.1337 25.6688 13.1295 25.6773 13.1255C25.6855 13.1216 25.6938 13.118 25.7018 13.1136C25.7099 13.1093 25.7175 13.1044 25.7253 13.0998C25.7333 13.095 25.7415 13.0904 25.7493 13.0852C25.7576 13.0796 25.7654 13.0734 25.7734 13.0674C25.7802 13.0624 25.7871 13.0577 25.7937 13.0522C25.8059 13.0422 25.8175 13.0316 25.8287 13.0206C25.8308 13.0186 25.833 13.017 25.835 13.015C25.8371 13.0129 25.8389 13.0105 25.8409 13.0083C25.8518 12.9972 25.8623 12.9858 25.8722 12.9738C25.878 12.9667 25.883 12.9593 25.8884 12.952C25.894 12.9445 25.8999 12.9372 25.9051 12.9294C25.9106 12.9211 25.9155 12.9124 25.9206 12.9038C25.9249 12.8966 25.9295 12.8896 25.9335 12.8821C25.9381 12.8735 25.942 12.8645 25.9462 12.8557C25.9499 12.8479 25.9538 12.8402 25.9572 12.8321C25.9608 12.8235 25.9636 12.8147 25.9668 12.8059C25.9699 12.7973 25.9732 12.7888 25.9758 12.7801C25.9785 12.7712 25.9805 12.7622 25.9827 12.7532C25.9849 12.7443 25.9875 12.7356 25.9892 12.7266C25.9913 12.716 25.9926 12.7054 25.9941 12.6947C25.9951 12.6872 25.9966 12.6797 25.9973 12.6721C25.9992 12.6534 26.0002 12.6347 26.0002 12.6159V0.563854C26.0002 0.252381 25.7478 0 25.4363 0H7.6749C7.66993 0 7.66512 0.000601032 7.66016 0.000751393C7.64941 0.00105211 7.63873 0.00150344 7.62806 0.0024056C7.61956 0.00308223 7.61114 0.00405977 7.60272 0.00518748C7.5931 0.00639037 7.58355 0.0078187 7.574 0.00954785C7.56506 0.0111266 7.55619 0.013006 7.54739 0.0150359C7.53844 0.0171409 7.5295 0.0193966 7.52062 0.0219527C7.51183 0.0244337 7.50318 0.0271398 7.49461 0.0299966C7.48582 0.0330039 7.47702 0.0361619 7.46837 0.0396202C7.46018 0.042853 7.45214 0.0461605 7.44417 0.0497692C7.43529 0.0537537 7.4265 0.0580395 7.41778 0.0624751C7.41034 0.0663094 7.40304 0.0702185 7.39583 0.0743535C7.3871 0.0793154 7.37853 0.084578 7.37004 0.089991C7.36305 0.0945019 7.3562 0.0991629 7.34944 0.103899C7.34147 0.109538 7.33358 0.115402 7.32583 0.121567C7.31877 0.127205 7.31185 0.132994 7.30501 0.138934C7.29824 0.144873 7.29155 0.150812 7.28501 0.157127C7.27757 0.164269 7.27042 0.171712 7.26336 0.17923C7.25982 0.182989 7.25606 0.186297 7.25268 0.190132C7.25065 0.192387 7.24907 0.194868 7.24712 0.197124C7.24005 0.205318 7.23343 0.213889 7.22682 0.222534C7.22201 0.22885 7.21705 0.235165 7.21253 0.24163C7.20667 0.25005 7.20126 0.258696 7.19584 0.267417C7.19141 0.274559 7.18682 0.281626 7.18276 0.288919C7.17803 0.297339 7.17389 0.305985 7.16961 0.31463C7.1657 0.322524 7.16164 0.330419 7.1581 0.338463C7.15442 0.346958 7.15119 0.355754 7.14795 0.3644C7.14472 0.372896 7.14141 0.381316 7.13863 0.389886C7.13585 0.398532 7.13359 0.407328 7.13119 0.416124C7.12878 0.425146 7.12623 0.434092 7.1242 0.443189C7.12232 0.451685 7.12104 0.460331 7.11954 0.468901C7.11788 0.478675 7.11623 0.488448 7.11503 0.498222C7.11405 0.506341 7.1136 0.514611 7.113 0.52288C7.11224 0.533406 7.11157 0.543931 7.11142 0.554532C7.11134 0.557614 7.11097 0.560622 7.11097 0.563704V4.04096C7.11097 4.35243 7.36335 4.60481 7.67482 4.60481C7.98629 4.60481 8.23867 4.35243 8.23867 4.04096V1.81599L13.2518 6.25442C13.2256 6.27284 13.2004 6.29322 13.177 6.3166L8.2386 11.255V7.54948C8.2386 7.23801 7.98622 6.98563 7.67475 6.98563C7.36327 6.98563 7.11089 7.23801 7.11089 7.54948V8.23844H4.19764C3.88617 8.23844 3.63379 8.49082 3.63379 8.80229C3.63379 9.11376 3.88617 9.36615 4.19764 9.36615H7.11089V12.6163C7.11089 12.9277 7.36327 13.1801 7.67475 13.1801H25.4362C25.4547 13.1801 25.4733 13.1792 25.4918 13.1773C25.5004 13.1765 25.5088 13.1749 25.5173 13.1737C25.527 13.1723 25.5367 13.1712 25.5463 13.1693ZM24.8724 11.2551L19.9339 6.31667C19.9308 6.31351 19.9274 6.31088 19.9241 6.30787L23.6368 3.15803C23.8742 2.95655 23.9034 2.6008 23.7019 2.3633C23.5006 2.12596 23.1448 2.09664 22.9072 2.29819L16.5633 7.68037L9.16227 1.12778H24.8724V11.2551ZM13.9745 7.11419C14.0147 7.07397 14.0474 7.02916 14.0728 6.98149L16.1817 8.8486C16.2883 8.94295 16.4219 8.99032 16.5555 8.99032C16.6853 8.99032 16.815 8.94573 16.9204 8.85642L19.0696 7.03299C19.0891 7.06156 19.1111 7.08885 19.1365 7.11419L24.0749 12.0526H9.03612L13.9745 7.11419Z" fill="black"/>
<path d="M0.563854 6.42068H10.0868C10.3982 6.42068 10.6506 6.1683 10.6506 5.85682C10.6506 5.54535 10.3982 5.29297 10.0868 5.29297H0.563854C0.252381 5.29297 0 5.54535 0 5.85682C0 6.1683 0.252381 6.42068 0.563854 6.42068Z" fill="black"/>
<path d="M1.55116 3.31522H5.82705C6.13853 3.31522 6.39091 3.06283 6.39091 2.75136C6.39091 2.43988 6.13853 2.1875 5.82705 2.1875H1.55116C1.23969 2.1875 0.987305 2.43988 0.987305 2.75136C0.987305 3.06283 1.23969 3.31522 1.55116 3.31522Z" fill="black"/>
<path d="M4.69879 10.6191H0.563854C0.252381 10.6191 0 10.8715 0 11.183C0 11.4945 0.252381 11.7468 0.563854 11.7468H4.69879C5.01026 11.7468 5.26264 11.4945 5.26264 11.183C5.26264 10.8715 5.01026 10.6191 4.69879 10.6191Z" fill="black"/>
</svg>
