<svg width="22" height="23" viewBox="0 0 22 23" fill="none" xmlns="http://www.w3.org/2000/svg">
<path d="M21.3955 16.1589L18.3229 13.0863C17.2255 11.9889 15.3599 12.4279 14.921 13.8544C14.5918 14.8421 13.4944 15.3908 12.5067 15.1713C10.312 14.6226 7.34905 11.7694 6.80036 9.46491C6.47115 8.47722 7.12958 7.37984 8.11722 7.05067C9.54381 6.61172 9.98277 4.74617 8.88539 3.64879L5.81272 0.576125C4.93482 -0.192042 3.61796 -0.192042 2.84979 0.576125L0.764772 2.66115C-1.32025 4.85591 0.984248 10.672 6.14194 15.8297C11.2996 20.9874 17.1157 23.4017 19.3105 21.2069L21.3955 19.1219C22.1637 18.2439 22.1637 16.9271 21.3955 16.1589Z" fill="black"/>
</svg>
