<svg width="63" height="63" viewBox="0 0 63 63" fill="none" xmlns="http://www.w3.org/2000/svg">
<circle cx="31.5" cy="31.5" r="31.5" fill="#B6B6B6"/>
<path d="M30.3226 41.9C28.7626 40.58 27.9826 38.96 27.9826 37.04C27.9826 35.84 28.2426 34.74 28.7626 33.74C29.3226 32.74 30.0026 31.92 30.8026 31.28C31.6026 30.64 32.4626 29.98 33.3826 29.3C34.3426 28.58 35.2226 27.92 36.0226 27.32C36.8226 26.72 37.4826 26 38.0026 25.16C38.5626 24.32 38.8426 23.4 38.8426 22.4C38.8426 20.8 38.2226 19.48 36.9826 18.44C35.7826 17.36 34.0426 16.82 31.7626 16.82C27.8826 16.82 24.7026 18.46 22.2226 21.74L19.2226 18.5C22.3826 14.42 26.7226 12.38 32.2426 12.38C35.8026 12.38 38.6426 13.28 40.7626 15.08C42.9226 16.84 44.0026 19.04 44.0026 21.68C44.0026 23.72 43.3826 25.54 42.1426 27.14C40.9426 28.7 39.6226 29.9 38.1826 30.74C36.7426 31.58 35.4026 32.58 34.1626 33.74C32.9626 34.9 32.3626 36.12 32.3626 37.4C32.3626 38.52 32.9026 39.5 33.9826 40.34L30.3226 41.9ZM33.8626 52.64C33.2226 53.28 32.4626 53.6 31.5826 53.6C30.7026 53.6 29.9226 53.28 29.2426 52.64C28.6026 52 28.2826 51.22 28.2826 50.3C28.2826 49.38 28.6026 48.6 29.2426 47.96C29.9226 47.32 30.7026 47 31.5826 47C32.4626 47 33.2226 47.32 33.8626 47.96C34.5426 48.6 34.8826 49.38 34.8826 50.3C34.8826 51.22 34.5426 52 33.8626 52.64Z" fill="white"/>
</svg>
