<svg width="63" height="63" viewBox="0 0 63 63" fill="none" xmlns="http://www.w3.org/2000/svg">
<circle cx="31.5" cy="31.5" r="31.5" fill="#C46565"/>
<path d="M31.5 4C16.3114 4 4 16.3114 4 31.5C4 46.6869 16.3114 59 31.5 59C46.6869 59 59 46.6886 59 31.5C59 16.3114 46.6869 4 31.5 4ZM31.5 55.5624C18.2107 55.5624 7.43755 44.7893 7.43755 31.5C7.43755 18.2107 18.2107 7.43755 31.5 7.43755C44.7893 7.43755 55.5624 18.2107 55.5624 31.5C55.5624 44.7893 44.7893 55.5624 31.5 55.5624Z" fill="white"/>
<path d="M43.0651 40.5597L34.0107 31.5035L43.0135 22.5747C43.6924 21.9026 43.6924 20.8147 43.0135 20.1444C42.3363 19.474 41.2364 19.474 40.5592 20.1444L31.5683 29.0612L22.4435 19.9346C21.7663 19.254 20.6664 19.254 19.9892 19.9346C19.312 20.6135 19.312 21.7169 19.9892 22.3958L29.1003 31.5087L19.9376 40.5957C19.2604 41.2677 19.2604 42.3557 19.9376 43.026C20.6148 43.6981 21.7147 43.6981 22.3936 43.026L31.5442 33.951L40.6123 43.0191C41.2895 43.6998 42.3895 43.6998 43.0667 43.0191C43.7423 42.3419 43.7423 41.2403 43.0651 40.5597Z" fill="white"/>
</svg>
