<svg width="55" height="55" viewBox="0 0 55 55" fill="none" xmlns="http://www.w3.org/2000/svg">
<path d="M27.5 0C12.3114 0 0 12.3114 0 27.5C0 42.6869 12.3114 55 27.5 55C42.6869 55 55 42.6886 55 27.5C55 12.3114 42.6869 0 27.5 0ZM27.5 51.5624C14.2107 51.5624 3.43755 40.7893 3.43755 27.5C3.43755 14.2107 14.2107 3.43755 27.5 3.43755C40.7893 3.43755 51.5624 14.2107 51.5624 27.5C51.5624 40.7893 40.7893 51.5624 27.5 51.5624Z" fill="white"/>
<path d="M39.0651 36.5597L30.0107 27.5035L39.0135 18.5747C39.6924 17.9026 39.6924 16.8147 39.0135 16.1444C38.3363 15.474 37.2364 15.474 36.5592 16.1444L27.5683 25.0612L18.4435 15.9346C17.7663 15.254 16.6664 15.254 15.9892 15.9346C15.312 16.6135 15.312 17.7169 15.9892 18.3958L25.1003 27.5087L15.9376 36.5957C15.2604 37.2677 15.2604 38.3557 15.9376 39.026C16.6148 39.6981 17.7147 39.6981 18.3936 39.026L27.5442 29.951L36.6123 39.0191C37.2895 39.6998 38.3895 39.6998 39.0667 39.0191C39.7423 38.3419 39.7423 37.2403 39.0651 36.5597Z" fill="white"/>
</svg>
