<svg width="63" height="63" viewBox="0 0 63 63" fill="none" xmlns="http://www.w3.org/2000/svg">
<circle cx="31.5" cy="31.5" r="31.5" fill="#83C465"/>
<path d="M53.1995 45.2981C53.2168 45.2947 53.2337 45.29 53.2507 45.2856C53.2652 45.2819 53.2799 45.2788 53.2941 45.2745C53.3107 45.2694 53.3269 45.2631 53.3432 45.2573C53.3575 45.2521 53.372 45.2475 53.3863 45.2415C53.4016 45.2351 53.4163 45.2276 53.4312 45.2206C53.4457 45.2137 53.4605 45.2073 53.4747 45.1996C53.4889 45.192 53.5024 45.1833 53.5162 45.1751C53.5304 45.1666 53.5448 45.1586 53.5586 45.1493C53.5734 45.1395 53.5871 45.1285 53.6013 45.1179C53.6133 45.109 53.6255 45.1006 53.6372 45.091C53.6588 45.0734 53.6793 45.0545 53.6992 45.035C53.7028 45.0316 53.7067 45.0287 53.7103 45.0251C53.714 45.0213 53.7172 45.0172 53.7208 45.0134C53.7399 44.9937 53.7585 44.9735 53.7761 44.9522C53.7863 44.9397 53.7953 44.9266 53.8048 44.9137C53.8147 44.9004 53.825 44.8875 53.8342 44.8737C53.8441 44.859 53.8527 44.8437 53.8618 44.8285C53.8693 44.8157 53.8774 44.8032 53.8845 44.7901C53.8927 44.7748 53.8997 44.7589 53.907 44.7434C53.9135 44.7295 53.9204 44.7158 53.9264 44.7016C53.9328 44.6863 53.9378 44.6707 53.9434 44.6552C53.9489 44.64 53.9547 44.625 53.9594 44.6096C53.9642 44.5939 53.9676 44.5779 53.9716 44.562C53.9755 44.5463 53.98 44.5308 53.9831 44.515C53.9868 44.4963 53.989 44.4774 53.9917 44.4585C53.9936 44.4452 53.9961 44.432 53.9974 44.4186C54.0007 44.3855 54.0025 44.3523 54.0025 44.3191V22.9975C54.0025 22.4465 53.556 22 53.0049 22H21.5828C21.574 22 21.5655 22.0011 21.5567 22.0013C21.5377 22.0019 21.5188 22.0027 21.4999 22.0043C21.4849 22.0055 21.47 22.0072 21.4551 22.0092C21.4381 22.0113 21.4212 22.0138 21.4043 22.0169C21.3885 22.0197 21.3728 22.023 21.3572 22.0266C21.3414 22.0303 21.3256 22.0343 21.3099 22.0388C21.2943 22.0432 21.279 22.048 21.2639 22.0531C21.2483 22.0584 21.2327 22.064 21.2174 22.0701C21.203 22.0758 21.1887 22.0817 21.1746 22.088C21.1589 22.0951 21.1434 22.1027 21.1279 22.1105C21.1148 22.1173 21.1019 22.1242 21.0891 22.1315C21.0737 22.1403 21.0585 22.1496 21.0435 22.1592C21.0311 22.1672 21.019 22.1754 21.007 22.1838C20.9929 22.1938 20.979 22.2042 20.9653 22.2151C20.9528 22.225 20.9405 22.2353 20.9284 22.2458C20.9165 22.2563 20.9046 22.2668 20.8931 22.278C20.8799 22.2906 20.8673 22.3038 20.8547 22.3171C20.8485 22.3237 20.8418 22.3296 20.8359 22.3364C20.8323 22.3404 20.8295 22.3447 20.826 22.3487C20.8135 22.3632 20.8018 22.3784 20.7901 22.3937C20.7816 22.4049 20.7728 22.416 20.7648 22.4275C20.7545 22.4424 20.7449 22.4577 20.7353 22.4731C20.7275 22.4857 20.7194 22.4982 20.7122 22.5111C20.7038 22.526 20.6965 22.5413 20.6889 22.5566C20.682 22.5706 20.6748 22.5846 20.6685 22.5988C20.662 22.6138 20.6563 22.6294 20.6506 22.6447C20.6449 22.6597 20.639 22.6746 20.6341 22.6898C20.6292 22.7051 20.6252 22.7206 20.6209 22.7362C20.6167 22.7521 20.6121 22.768 20.6086 22.7841C20.6052 22.7991 20.603 22.8144 20.6003 22.8295C20.5974 22.8468 20.5945 22.8641 20.5923 22.8814C20.5906 22.8958 20.5898 22.9104 20.5887 22.925C20.5874 22.9437 20.5862 22.9623 20.5859 22.981C20.5858 22.9865 20.5851 22.9918 20.5851 22.9973V29.1489C20.5851 29.7 21.0316 30.1465 21.5827 30.1465C22.1337 30.1465 22.5802 29.7 22.5802 29.1489V25.2127L31.449 33.0648C31.4027 33.0974 31.3582 33.1335 31.3167 33.1748L22.5801 41.9115V35.356C22.5801 34.8049 22.1336 34.3584 21.5825 34.3584C21.0315 34.3584 20.585 34.8049 20.585 35.356V36.5748H15.4311C14.8801 36.5748 14.4336 37.0213 14.4336 37.5723C14.4336 38.1234 14.8801 38.5699 15.4311 38.5699H20.585V44.3198C20.585 44.8708 21.0315 45.3173 21.5825 45.3173H53.0047C53.0375 45.3173 53.0704 45.3156 53.1031 45.3124C53.1184 45.3109 53.1332 45.308 53.1482 45.3058C53.1655 45.3034 53.1825 45.3015 53.1995 45.2981ZM52.0073 41.9116L43.2705 33.175C43.2649 33.1694 43.259 33.1647 43.2532 33.1594L49.8214 27.587C50.2414 27.2305 50.293 26.6011 49.9366 26.181C49.5804 25.7611 48.951 25.7092 48.5306 26.0658L37.3076 35.5875L24.2142 23.9952H52.0073V41.9116ZM32.7276 34.5859C32.7988 34.5147 32.8565 34.4354 32.9016 34.3511L36.6324 37.6543C36.821 37.8212 37.0573 37.905 37.2937 37.905C37.5233 37.905 37.7527 37.8261 37.9392 37.6681L41.7414 34.4422C41.776 34.4928 41.8149 34.5411 41.8598 34.5859L50.5964 43.3225H23.991L32.7276 34.5859Z" fill="white"/>
<path d="M8.99753 33.36H25.8447C26.3957 33.36 26.8422 32.9135 26.8422 32.3625C26.8422 31.8114 26.3957 31.3649 25.8447 31.3649H8.99753C8.44649 31.3649 8 31.8114 8 32.3625C8 32.9135 8.44649 33.36 8.99753 33.36Z" fill="white"/>
<path d="M10.7475 27.8635H18.3121C18.8632 27.8635 19.3096 27.417 19.3096 26.8659C19.3096 26.3149 18.8632 25.8684 18.3121 25.8684H10.7475C10.1965 25.8684 9.75 26.3149 9.75 26.8659C9.75 27.417 10.1965 27.8635 10.7475 27.8635Z" fill="white"/>
<path d="M16.3127 40.7867H8.99753C8.44649 40.7867 8 41.2332 8 41.7843C8 42.3353 8.44649 42.7818 8.99753 42.7818H16.3127C16.8638 42.7818 17.3103 42.3353 17.3103 41.7843C17.3103 41.2332 16.8638 40.7867 16.3127 40.7867Z" fill="white"/>
</svg>
