<svg width="63" height="63" viewBox="0 0 63 63" fill="none" xmlns="http://www.w3.org/2000/svg">
<circle cx="31.5" cy="31.5" r="31.5" fill="#83C465"/>
<path d="M39.6385 36.339C39.5074 35.9754 39.1065 35.787 38.743 35.918C38.3794 36.049 38.1909 36.4499 38.3219 36.8135C38.3252 36.8224 38.3286 36.8312 38.3322 36.84C38.9703 38.5054 39.0165 39.7789 38.4581 40.3387C37.7808 41.0146 36.0937 40.8033 33.9442 39.7747C31.0664 38.2804 28.4505 36.3284 26.1989 33.995C20.7179 28.5133 18.4564 23.1345 19.8552 21.7357C20.3015 21.3832 20.8817 21.2478 21.4379 21.3663C21.8233 21.3946 22.1587 21.1051 22.1871 20.7197C22.2145 20.3472 21.9445 20.0189 21.5737 19.9738C20.6008 19.8017 19.6026 20.0853 18.8657 20.7435C16.3019 23.3066 20.2211 29.9925 25.2095 34.9816C27.5729 37.4273 30.3191 39.4715 33.3403 41.0335C33.8874 41.2955 34.4512 41.521 35.028 41.7087L30.0565 43.5938C23.4178 41.0699 18.6388 35.1845 17.5314 28.169C17.4715 27.7872 17.1134 27.5262 16.7316 27.5862C16.3498 27.6461 16.0888 28.0042 16.1487 28.3859C16.2586 29.0857 16.4055 29.7854 16.5853 30.4697C18.1966 36.5748 22.4406 41.6465 28.1658 44.3089L19.9832 47.4052C19.9457 47.3426 19.8985 47.2865 19.8433 47.2387C17.7637 45.5691 16.4589 43.1204 16.2327 40.4632L15.908 36.5315C15.8825 36.1506 15.5529 35.8624 15.1719 35.888C15.1646 35.8885 15.1574 35.889 15.1502 35.8898C14.765 35.9204 14.4775 36.2576 14.5081 36.6428C14.5082 36.6444 14.5084 36.646 14.5085 36.6476L14.8388 40.578C15.0848 43.4183 16.4097 46.0562 18.5411 47.9496L12.7039 50.1594L13.7535 45.8518C13.8451 45.4762 13.6149 45.0974 13.2392 45.0059C12.8636 44.9143 12.4848 45.1445 12.3933 45.5202L11.0281 51.118C10.9361 51.4933 11.1658 51.8722 11.5412 51.9641C11.6788 51.9979 11.8234 51.989 11.9559 51.9388L37.8458 42.1426C37.887 42.1225 37.926 42.0981 37.962 42.0698C38.5223 41.9837 39.0418 41.7247 39.4475 41.3288C40.1409 40.6354 40.7377 39.2058 39.6385 36.339Z" fill="white"/>
<path d="M46.2437 34.5345C42.461 33.1185 38.3726 32.7215 34.3882 33.3835L31.8881 33.8033C31.5086 33.8763 31.2601 34.243 31.333 34.6225C31.4035 34.9892 31.7494 35.2359 32.119 35.1832L34.6184 34.7669C38.3604 34.1447 42.2002 34.5178 45.7525 35.8486C45.8313 35.8765 45.9145 35.8905 45.9981 35.8899C46.3845 35.8905 46.6983 35.5778 46.6989 35.1913C46.6995 34.8988 46.5179 34.6368 46.2437 34.5345Z" fill="white"/>
<path d="M48.7293 23.6938C48.5631 23.3449 48.1455 23.1967 47.7965 23.3629L33.1023 30.3602C32.7534 30.5263 32.6051 30.9437 32.7712 31.2927C32.7712 31.2928 32.7713 31.2929 32.7713 31.2929C32.9374 31.6418 33.3549 31.79 33.7039 31.6239C33.7039 31.6239 33.7039 31.6239 33.704 31.6239L48.3983 24.6266C48.7473 24.4604 48.8955 24.0428 48.7293 23.6938Z" fill="white"/>
<path d="M28.0007 14.749C27.9238 14.3703 27.5544 14.1256 27.1757 14.2026C26.797 14.2796 26.5523 14.649 26.6293 15.0277C26.6309 15.0361 26.6329 15.0444 26.6349 15.0527C27.5206 19.0096 27.1556 23.1439 25.5902 26.8844L24.5728 29.3257C24.4257 29.6815 24.5936 30.0891 24.9485 30.2382C25.0335 30.274 25.1249 30.2922 25.2172 30.2921C25.4997 30.2921 25.7544 30.1224 25.8631 29.8617L26.8812 27.4232C28.5583 23.4165 28.9496 18.9877 28.0007 14.749Z" fill="white"/>
<path d="M49.4937 35.1902C48.3344 35.1902 47.3945 36.13 47.3945 37.2894C47.3945 38.4487 48.3344 39.3885 49.4937 39.3885C50.6531 39.3885 51.5929 38.4487 51.5929 37.2894C51.5929 36.13 50.6531 35.1902 49.4937 35.1902ZM49.4937 37.9891C49.1073 37.9891 48.794 37.6758 48.794 37.2894C48.794 36.9029 49.1073 36.5896 49.4937 36.5896C49.8801 36.5896 50.1934 36.9029 50.1934 37.2894C50.1934 37.6758 49.8801 37.9891 49.4937 37.9891Z" fill="white"/>
<path d="M32.7007 15.5978C31.5414 15.5978 30.6016 16.5376 30.6016 17.697C30.6016 18.8564 31.5414 19.7962 32.7007 19.7962C33.8601 19.7962 34.7999 18.8564 34.7999 17.697C34.7999 16.5376 33.8601 15.5978 32.7007 15.5978ZM32.7007 18.3967C32.3143 18.3967 32.001 18.0834 32.001 17.697C32.001 17.3106 32.3143 16.9973 32.7007 16.9973C33.0872 16.9973 33.4005 17.3106 33.4005 17.697C33.4005 18.0834 33.0872 18.3967 32.7007 18.3967Z" fill="white"/>
<path d="M26.4034 12.7989C27.1763 12.7989 27.8028 12.1724 27.8028 11.3995C27.8028 10.6266 27.1763 10 26.4034 10C25.6305 10 25.0039 10.6266 25.0039 11.3995C25.0039 12.1724 25.6305 12.7989 26.4034 12.7989Z" fill="white"/>
<path d="M45.9966 13.4986C45.6102 13.4986 45.2969 13.8119 45.2969 14.1984V14.8981C45.2969 15.2845 45.6102 15.5978 45.9966 15.5978C46.383 15.5978 46.6963 15.2845 46.6963 14.8981V14.1984C46.6963 13.8119 46.383 13.4986 45.9966 13.4986Z" fill="white"/>
<path d="M45.9966 10C45.6102 10 45.2969 10.3133 45.2969 10.6997V11.3995C45.2969 11.7859 45.6102 12.0992 45.9966 12.0992C46.383 12.0992 46.6963 11.7859 46.6963 11.3995V10.6997C46.6963 10.3133 46.383 10 45.9966 10Z" fill="white"/>
<path d="M48.0948 12.0992H47.395C47.0086 12.0992 46.6953 12.4125 46.6953 12.7989C46.6953 13.1853 47.0086 13.4986 47.395 13.4986H48.0948C48.4812 13.4986 48.7945 13.1853 48.7945 12.7989C48.7945 12.4125 48.4812 12.0992 48.0948 12.0992Z" fill="white"/>
<path d="M44.5948 12.0992H43.895C43.5086 12.0992 43.1953 12.4125 43.1953 12.7989C43.1953 13.1853 43.5086 13.4986 43.895 13.4986H44.5948C44.9812 13.4986 45.2945 13.1853 45.2945 12.7989C45.2945 12.4125 44.9812 12.0992 44.5948 12.0992Z" fill="white"/>
<path d="M41.0959 17.6823H37.5825C37.1961 17.6823 36.8828 17.9956 36.8828 18.382V21.8953C36.8828 22.2818 37.1961 22.5951 37.5825 22.5951H41.0959C41.4823 22.5951 41.7956 22.2818 41.7956 21.8953V18.382C41.7956 17.9956 41.4823 17.6823 41.0959 17.6823ZM40.3961 21.1956H38.2823V19.0817H40.3961V21.1956Z" fill="white"/>
<path d="M36.0019 23.5252C35.745 23.251 35.3175 23.2286 35.0334 23.4744L28.0361 29.772C27.7491 30.0305 27.7259 30.4729 27.9843 30.76C28.2429 31.0471 28.6852 31.0702 28.9724 30.8118L35.9696 24.5142C36.2517 24.25 36.2661 23.8073 36.0019 23.5252Z" fill="white"/>
<path d="M48.7935 26.0937C48.4071 26.0937 48.0938 26.407 48.0938 26.7935V27.4932C48.0938 27.8796 48.4071 28.1929 48.7935 28.1929C49.1799 28.1929 49.4932 27.8796 49.4932 27.4932V26.7935C49.4932 26.407 49.1799 26.0937 48.7935 26.0937Z" fill="white"/>
<path d="M51.7626 25.9735L51.2678 25.4788C50.9899 25.2102 50.547 25.2179 50.2784 25.4959C50.0166 25.7671 50.0166 26.197 50.2784 26.4682L50.7731 26.9629C51.0511 27.2314 51.494 27.2237 51.7626 26.9458C52.0245 26.6745 52.0245 26.2446 51.7626 25.9735Z" fill="white"/>
<path d="M52.294 23.2948H51.5943C51.2078 23.2948 50.8945 23.6081 50.8945 23.9945C50.8945 24.381 51.2078 24.6943 51.5943 24.6943H52.294C52.6804 24.6943 52.9937 24.381 52.9937 23.9945C52.9937 23.6081 52.6804 23.2948 52.294 23.2948Z" fill="white"/>
<path d="M51.7461 21.0264C51.4749 20.7645 51.045 20.7645 50.7738 21.0264L50.2791 21.5211C50.0059 21.7945 50.0059 22.2375 50.2793 22.5107C50.4105 22.6418 50.5884 22.7156 50.7738 22.7156C50.9594 22.7156 51.1373 22.6417 51.2685 22.5105L51.7632 22.0158C52.0318 21.7379 52.0241 21.2949 51.7461 21.0264Z" fill="white"/>
<path d="M48.7935 19.7962C48.4071 19.7962 48.0938 20.1095 48.0938 20.4959V21.1956C48.0938 21.5821 48.4071 21.8954 48.7935 21.8954C49.1799 21.8954 49.4932 21.5821 49.4932 21.1956V20.4959C49.4932 20.1095 49.1799 19.7962 48.7935 19.7962Z" fill="white"/>
<path d="M47.3094 21.5208L46.8147 21.0261C46.5368 20.7577 46.0938 20.7653 45.8253 21.0433C45.5634 21.3144 45.5634 21.7443 45.8253 22.0156L46.32 22.5103C46.598 22.7788 47.0409 22.7711 47.3094 22.4931C47.5714 22.2219 47.5714 21.792 47.3094 21.5208Z" fill="white"/>
<path d="M19.3711 13.0263C19.2887 12.7732 19.0698 12.5888 18.8065 12.5505L16.7528 12.2517L15.8368 10.3912C15.6327 10.0445 15.1862 9.92899 14.8395 10.1331C14.733 10.1959 14.6442 10.2846 14.5815 10.3912L13.6614 12.2517L11.6077 12.5505C11.2252 12.6057 10.9599 12.9606 11.0151 13.3431C11.037 13.4953 11.1086 13.6361 11.2186 13.7436L12.7041 15.192L12.3543 17.2373C12.2871 17.6179 12.5411 17.9808 12.9217 18.048C13.0749 18.075 13.2327 18.0503 13.3703 17.9776L15.2071 17.0092L17.0438 17.9748C17.3859 18.1546 17.809 18.0232 17.9888 17.6811C18.0605 17.5449 18.0851 17.389 18.0591 17.2373L17.7093 15.192L19.1955 13.7436C19.3857 13.5573 19.4538 13.2794 19.3711 13.0263ZM16.4666 14.4468C16.3018 14.6073 16.2265 14.8385 16.265 15.0653L16.4386 16.0764L15.5324 15.5985C15.3287 15.4916 15.0854 15.4916 14.8817 15.5985L13.972 16.0757L14.1456 15.0646C14.1848 14.8387 14.1108 14.6078 13.9475 14.4468L13.2121 13.731L14.2274 13.5833C14.4554 13.5503 14.6524 13.4071 14.7543 13.2006L15.2071 12.2818L15.6605 13.2006C15.7623 13.4069 15.959 13.55 16.1867 13.5833L17.2013 13.731L16.4666 14.4468Z" fill="white"/>
<path d="M50.6313 45.0739H50.6285L50.3403 44.6414C48.7238 42.2241 46.1819 40.5805 43.3143 40.0981C42.9317 40.0435 42.5773 40.3094 42.5227 40.692C42.47 41.0616 42.7167 41.4076 43.0834 41.478C45.1518 41.8291 47.0368 42.8799 48.423 44.4546C47.2575 44.6643 46.2382 45.3643 45.6241 46.3768C44.8705 47.7264 45.3537 49.4314 46.7034 50.185C48.0531 50.9386 49.7581 50.4554 50.5117 49.1057C50.7995 48.55 50.955 47.9352 50.9658 47.3095C51.7103 48.3908 51.7699 49.803 51.1191 50.9432C50.9219 51.2755 51.0315 51.7048 51.3639 51.902C51.6962 52.0991 52.1255 51.9895 52.3227 51.6572C52.329 51.6465 52.335 51.6357 52.3408 51.6247C53.622 49.3363 52.8673 46.4445 50.6313 45.0739ZM49.2914 48.4228C48.9179 49.0995 48.0666 49.3453 47.3899 48.9718C46.7133 48.5983 46.4674 47.747 46.8409 47.0704C46.843 47.0666 46.8451 47.0628 46.8472 47.059C47.2601 46.3829 47.9566 45.9296 48.7421 45.8261C48.8637 45.8227 48.9842 45.8507 49.0919 45.9072C49.6825 46.2368 49.714 47.6657 49.2914 48.4228Z" fill="white"/>
</svg>
