<svg width="26" height="26" viewBox="0 0 26 26" fill="none" xmlns="http://www.w3.org/2000/svg">
<path d="M13.0003 2.1665C7.02033 2.1665 2.16699 7.01984 2.16699 12.9998C2.16699 18.9798 7.02033 23.8332 13.0003 23.8332C18.9803 23.8332 23.8337 18.9798 23.8337 12.9998C23.8337 7.01984 18.9803 2.1665 13.0003 2.1665ZM13.0003 5.4165C14.7987 5.4165 16.2503 6.86817 16.2503 8.6665C16.2503 10.4648 14.7987 11.9165 13.0003 11.9165C11.202 11.9165 9.75033 10.4648 9.75033 8.6665C9.75033 6.86817 11.202 5.4165 13.0003 5.4165ZM13.0003 20.7998C10.292 20.7998 7.89783 19.4132 6.50033 17.3115C6.53283 15.1557 10.8337 13.9748 13.0003 13.9748C15.1562 13.9748 19.4678 15.1557 19.5003 17.3115C18.1028 19.4132 15.7087 20.7998 13.0003 20.7998Z" fill="black"/>
</svg>
