<svg width="32" height="32" viewBox="0 0 32 32" fill="none" xmlns="http://www.w3.org/2000/svg">
<path d="M15.8737 30.7475C7.65404 30.7475 1 24.0934 1 15.8737C1 7.65404 7.65404 1 15.8737 1C24.0934 1 30.7475 7.65404 30.7475 15.8737C30.7475 24.0934 24.0934 30.7475 15.8737 30.7475Z" fill="black" stroke="black" stroke-width="1.5" stroke-miterlimit="10"/>
<path d="M22.4384 10.311C21.1885 9.06111 19.1546 9.06086 17.9045 10.3104L17.9048 10.3106L15.9269 12.2888L16.8399 13.2016L18.8181 11.223L18.8179 11.2228C19.5648 10.4772 20.779 10.4776 21.5254 11.224C22.2719 11.9704 22.2719 13.1852 21.5254 13.9319L18.5572 16.9C18.1956 17.2616 17.7148 17.4608 17.2034 17.4608C16.6919 17.4608 16.2111 17.2616 15.8495 16.9L14.9365 17.8128C15.542 18.4183 16.3471 18.7519 17.2035 18.7519C18.0598 18.7519 18.8649 18.4183 19.4701 17.8128L22.4385 14.8448C23.6882 13.5946 23.6882 11.5607 22.4384 10.311Z" fill="white"/>
<path d="M13.9333 21.5235C13.1866 22.2697 11.9719 22.2696 11.2254 21.5231C10.4789 20.7764 10.4789 19.5614 11.2253 18.8148L14.1932 15.8469C14.9399 15.1004 16.1547 15.1004 16.9012 15.8469L17.8142 14.9341C16.5641 13.6841 14.5302 13.684 13.2803 14.9341L10.3122 17.902C9.06257 19.152 9.06257 21.1859 10.3123 22.436C10.9375 23.0611 11.7584 23.3736 12.5795 23.3735C13.4003 23.3735 14.2213 23.0612 14.846 22.4365L14.8462 22.4364L16.8245 20.4576L15.9114 19.5447L13.9333 21.5235Z" fill="white"/>
</svg>
