<svg width="31" height="29" viewBox="0 0 31 29" fill="none" xmlns="http://www.w3.org/2000/svg">
    <path d="M21.9628 0.440918C20.5174 0.440918 19.1359 0.772266 17.8568 1.42582C16.9861 1.87063 16.1863 2.46161 15.5 3.16278C14.8137 2.46161 14.0139 1.87063 13.1432 1.42582C11.8641 0.772266 10.4826 0.440918 9.03717 0.440918C4.0541 0.440918 0 4.49502 0 9.47815C0 13.0076 1.86403 16.7562 5.54024 20.6199C8.60969 23.8459 12.3677 26.535 14.9796 28.2229L15.5 28.5591L16.0204 28.2229C18.6323 26.5351 22.3903 23.8459 25.4598 20.6199C29.136 16.7562 31 13.0076 31 9.47815C31 4.49502 26.9459 0.440918 21.9628 0.440918ZM24.0706 19.2981C21.3274 22.1811 17.9859 24.6321 15.5 26.2725C13.0141 24.632 9.67257 22.1811 6.92943 19.2981C3.60373 15.8029 1.91753 12.499 1.91753 9.47815C1.91753 5.55234 5.11142 2.35844 9.03724 2.35844C11.2974 2.35844 13.3737 3.39666 14.7334 5.2068L15.5 6.22724L16.2666 5.2068C17.6263 3.39666 19.7026 2.35844 21.9628 2.35844C25.8886 2.35844 29.0825 5.55234 29.0825 9.47815C29.0825 12.499 27.3962 15.8029 24.0706 19.2981Z"
          fill="black"/>
</svg>
