<svg width="31" height="31" viewBox="0 0 31 31" fill="none" xmlns="http://www.w3.org/2000/svg">
    <g clip-path="url(#clip0)">
        <path d="M15.5002 30.3738C7.28051 30.3738 0.626465 23.7197 0.626465 15.5C0.626465 7.28032 7.28051 0.626282 15.5002 0.626282C23.7199 0.626282 30.3739 7.28032 30.3739 15.5C30.3739 23.7197 23.7199 30.3738 15.5002 30.3738Z"
              stroke="black" stroke-width="1.5" stroke-miterlimit="10"/>
        <path d="M13.23 24.5025H16.831V15.4217H19.3361L19.5709 12.3687H16.7527C16.7527 12.3687 16.7527 11.1945 16.7527 10.6465C16.7527 9.94194 16.9093 9.62881 17.6139 9.62881C18.1618 9.62881 19.5709 9.62881 19.5709 9.62881V6.4975C19.5709 6.4975 17.5356 6.4975 17.0659 6.4975C14.4043 6.4975 13.1517 7.67174 13.1517 9.94194C13.1517 11.899 13.1517 12.3687 13.1517 12.3687H11.2729V15.4217H13.1517V24.5025H13.23Z"
              fill="black"/>
    </g>
    <defs>
        <clipPath id="clip0">
            <rect width="31" height="31" fill="white"/>
        </clipPath>
    </defs>
</svg>
