<svg width="31" height="31" viewBox="0 0 31 31" fill="none" xmlns="http://www.w3.org/2000/svg">
    <g clip-path="url(#clip0)">
        <path d="M15.5002 30.3738C7.28051 30.3738 0.626465 23.7197 0.626465 15.5C0.626465 7.28032 7.28051 0.626282 15.5002 0.626282C23.7199 0.626282 30.3739 7.28032 30.3739 15.5C30.3739 23.7197 23.7199 30.3738 15.5002 30.3738Z"
              stroke="black" stroke-width="1.5" stroke-miterlimit="10"/>
        <g clip-path="url(#clip1)">
            <path d="M22.0639 9.93757C20.814 8.68764 18.7801 8.68738 17.53 9.93688L17.5303 9.93714L15.5524 11.9153L16.4654 12.8281L18.4436 10.8495L18.4434 10.8493C19.1903 10.1037 20.4045 10.1041 21.1509 10.8505C21.8974 11.5969 21.8973 12.8117 21.1509 13.5584L18.1827 16.5265C17.8211 16.8882 17.3403 17.0873 16.8289 17.0873C16.3174 17.0873 15.8366 16.8882 15.475 16.5265L14.562 17.4394C15.1675 18.0449 15.9726 18.3784 16.829 18.3784C17.6853 18.3784 18.4904 18.0449 19.0956 17.4394L22.064 14.4713C23.3136 13.2211 23.3136 11.1872 22.0639 9.93757Z"
                  fill="black"/>
            <path d="M13.5592 21.15C12.8126 21.8963 11.5978 21.8961 10.8513 21.1496C10.1049 20.4029 10.1049 19.1879 10.8513 18.4414L13.8192 15.4735C14.5658 14.7269 15.7806 14.7269 16.5271 15.4735L17.4402 14.5606C16.1901 13.3106 14.1562 13.3105 12.9063 14.5606L9.93822 17.5285C8.68855 18.7785 8.68855 20.8125 9.9383 22.0626C10.5634 22.6876 11.3844 23.0001 12.2055 23C13.0263 23 13.8472 22.6877 14.472 22.063L14.4722 22.0629L16.4505 20.0841L15.5374 19.1712L13.5592 21.15Z"
                  fill="black"/>
        </g>
    </g>
    <defs>
        <clipPath id="clip0">
            <rect width="31" height="31" fill="white"/>
        </clipPath>
        <clipPath id="clip1">
            <rect width="14" height="14" fill="white" transform="translate(9 9)"/>
        </clipPath>
    </defs>
</svg>
