<svg width="31" height="31" viewBox="0 0 31 31" fill="none" xmlns="http://www.w3.org/2000/svg">
    <g clip-path="url(#clip0)">
        <path d="M15.5002 30.3738C7.28051 30.3738 0.626465 23.7197 0.626465 15.5C0.626465 7.28032 7.28051 0.626282 15.5002 0.626282C23.7199 0.626282 30.3739 7.28032 30.3739 15.5C30.3739 23.7197 23.7199 30.3738 15.5002 30.3738Z"
              stroke="black" stroke-width="1.5" stroke-miterlimit="10"/>
        <path d="M15.5003 8.76771C17.6922 8.76771 17.9271 8.76771 18.7882 8.84599C19.571 8.84599 20.0407 9.00256 20.2756 9.15912C20.667 9.31569 20.9018 9.47225 21.2149 9.78538C21.5281 10.0985 21.6846 10.3334 21.8412 10.7248C21.9195 11.0379 22.0761 11.4293 22.1543 12.2122C22.1543 13.0733 22.2326 13.3081 22.2326 15.5C22.2326 17.6919 22.2326 17.9268 22.1543 18.7879C22.1543 19.5707 21.9978 20.0404 21.8412 20.2753C21.6846 20.6667 21.5281 20.9015 21.2149 21.2147C20.9018 21.5278 20.667 21.6844 20.2756 21.8409C19.9624 21.9192 19.571 22.0758 18.7882 22.1541C17.9271 22.1541 17.6922 22.2324 15.5003 22.2324C13.3084 22.2324 13.0735 22.2324 12.2124 22.1541C11.4296 22.1541 10.9599 21.9975 10.725 21.8409C10.3336 21.6844 10.0988 21.5278 9.78565 21.2147C9.47252 20.9015 9.31596 20.6667 9.15939 20.2753C9.08111 19.9622 8.92454 19.5707 8.84626 18.7879C8.76798 17.9268 8.76798 17.6919 8.76798 15.5C8.76798 13.3081 8.76798 13.0733 8.84626 12.2122C8.84626 11.4293 9.00283 10.9596 9.15939 10.7248C9.31596 10.3334 9.47252 10.0985 9.78565 9.78538C10.0988 9.47225 10.3336 9.31569 10.725 9.15912C11.0382 9.08084 11.4296 8.92427 12.2124 8.84599C13.0735 8.76771 13.3084 8.76771 15.5003 8.76771ZM15.5003 7.28033C13.3084 7.28033 12.9953 7.28033 12.1341 7.35862C11.273 7.4369 10.6468 7.51518 10.1771 7.75003C9.62909 7.98488 9.15939 8.21973 8.76798 8.68943C8.29828 9.15912 8.06343 9.62882 7.82858 10.0985C7.59374 10.6465 7.51545 11.1945 7.43717 12.0556C7.35889 12.9167 7.35889 13.2298 7.35889 15.4217C7.35889 17.6137 7.35889 17.9268 7.43717 18.7879C7.51545 19.649 7.59374 20.2753 7.82858 20.745C8.06343 21.293 8.29828 21.7627 8.76798 22.1541C9.23767 22.6238 9.70737 22.8586 10.1771 23.0935C10.725 23.3283 11.273 23.4066 12.1341 23.4849C12.9953 23.5632 13.3084 23.5632 15.5003 23.5632C17.6922 23.5632 18.0054 23.5632 18.8665 23.4849C19.7276 23.4066 20.3538 23.3283 20.8235 23.0935C21.3715 22.8586 21.8412 22.6238 22.2326 22.1541C22.7023 21.6844 22.9372 21.2147 23.172 20.745C23.4069 20.197 23.4851 19.649 23.5634 18.7879C23.6417 17.9268 23.6417 17.6137 23.6417 15.4217C23.6417 13.2298 23.6417 12.9167 23.5634 12.0556C23.4851 11.1945 23.4069 10.5682 23.172 10.0985C22.9372 9.55054 22.7023 9.08084 22.2326 8.68943C21.7629 8.21973 21.2932 7.98488 20.8235 7.75003C20.2756 7.51518 19.7276 7.4369 18.8665 7.35862C18.0054 7.35862 17.6922 7.28033 15.5003 7.28033Z"
              fill="black"/>
        <path d="M15.5002 11.2728C13.1517 11.2728 11.2729 13.1516 11.2729 15.5C11.2729 17.8485 13.1517 19.7273 15.5002 19.7273C17.8487 19.7273 19.7275 17.8485 19.7275 15.5C19.6492 13.1516 17.7704 11.2728 15.5002 11.2728ZM15.5002 18.2399C14.0128 18.2399 12.7603 16.9874 12.7603 15.5C12.7603 14.0127 14.0128 12.7601 15.5002 12.7601C16.9876 12.7601 18.2401 14.0127 18.2401 15.5C18.2401 16.9874 16.9876 18.2399 15.5002 18.2399Z"
              fill="black"/>
        <path d="M20.8234 11.1162C20.8234 11.6642 20.3537 12.1339 19.8058 12.1339C19.2578 12.1339 18.7881 11.6642 18.7881 11.1162C18.7881 10.5682 19.2578 10.0985 19.8058 10.0985C20.3537 10.1768 20.8234 10.5682 20.8234 11.1162Z"
              fill="black"/>
    </g>
    <defs>
        <clipPath id="clip0">
            <rect width="31" height="31" fill="white"/>
        </clipPath>
    </defs>
</svg>
