<svg width="18" height="18" viewBox="0 0 18 18" fill="none" xmlns="http://www.w3.org/2000/svg">
<g clip-path="url(#clip0)">
<path d="M13.1245 18.0001C10.4365 18.0001 8.24951 15.8131 8.24951 13.1251C8.24951 10.4371 10.4365 8.25015 13.1245 8.25015C15.8125 8.25015 17.9995 10.4371 17.9995 13.1251C17.9995 15.8131 15.8125 18.0001 13.1245 18.0001ZM13.1245 9.00015C10.8498 9.00015 8.99951 10.8504 8.99951 13.1251C8.99951 15.3999 10.8498 17.2501 13.1245 17.2501C15.3993 17.2501 17.2495 15.3999 17.2495 13.1251C17.2495 10.8504 15.3993 9.00015 13.1245 9.00015Z" fill="#7C7C7C"/>
<path d="M12.3752 15C12.2762 15 12.1802 14.9603 12.1097 14.8905L10.6097 13.3905C10.4634 13.2443 10.4634 13.0065 10.6097 12.8603C10.7559 12.714 10.9937 12.714 11.1399 12.8603L12.3564 14.0768L14.7174 11.3783C14.8539 11.2215 15.0909 11.2058 15.2469 11.343C15.4029 11.4795 15.4187 11.7165 15.2822 11.8725L12.6572 14.8725C12.5889 14.9505 12.4907 14.997 12.3872 15C12.3834 15 12.3789 15 12.3752 15Z" fill="#7C7C7C"/>
<path d="M6.375 15.75H1.875C0.8415 15.75 0 14.9085 0 13.875V1.875C0 0.8415 0.8415 0 1.875 0H10.125C11.1585 0 12 0.8415 12 1.875V6.375C12 6.582 11.832 6.75 11.625 6.75C11.418 6.75 11.25 6.582 11.25 6.375V1.875C11.25 1.25475 10.7452 0.75 10.125 0.75H1.875C1.25475 0.75 0.75 1.25475 0.75 1.875V13.875C0.75 14.4952 1.25475 15 1.875 15H6.375C6.582 15 6.75 15.168 6.75 15.375C6.75 15.582 6.582 15.75 6.375 15.75Z" fill="#7C7C7C"/>
<path d="M7.125 10.4176C6.918 10.4176 6.75 10.2496 6.75 10.0426V4.12514C6.75 3.91814 6.918 3.75014 7.125 3.75014H9.375C9.582 3.75014 9.75 3.91814 9.75 4.12514V7.51514C9.75 7.72214 9.582 7.89014 9.375 7.89014C9.168 7.89014 9 7.72214 9 7.51514V4.50014H7.5V10.0426C7.5 10.2504 7.332 10.4176 7.125 10.4176Z" fill="#7C7C7C"/>
<path d="M4.875 11.25H2.625C2.418 11.25 2.25 11.082 2.25 10.875V7.125C2.25 6.918 2.418 6.75 2.625 6.75H4.875C5.082 6.75 5.25 6.918 5.25 7.125V10.875C5.25 11.082 5.082 11.25 4.875 11.25ZM3 10.5H4.5V7.5H3V10.5Z" fill="#7C7C7C"/>
<path d="M6.76451 11.2501H1.87451C1.66751 11.2501 1.49951 11.0821 1.49951 10.8751C1.49951 10.6681 1.66751 10.5001 1.87451 10.5001H6.76451C6.97151 10.5001 7.13951 10.6681 7.13951 10.8751C7.13951 11.0821 6.97151 11.2501 6.76451 11.2501Z" fill="#7C7C7C"/>
</g>
<defs>
<clipPath id="clip0">
<rect width="18" height="18" fill="white"/>
</clipPath>
</defs>
</svg>
