<svg width="19" height="19" viewBox="0 0 19 19" fill="none" xmlns="http://www.w3.org/2000/svg">
<path d="M15.5356 4.40173C14.0554 2.91847 12.1271 2.04766 10.0566 1.91496V1.11328H10.873C11.1804 1.11328 11.4297 0.864055 11.4297 0.556641C11.4297 0.249227 11.1804 0 10.873 0H8.12692C7.8195 0 7.57028 0.249227 7.57028 0.556641C7.57028 0.864055 7.8195 1.11328 8.12692 1.11328H8.94332V1.91496C7.52363 2.00595 6.17096 2.44402 4.98364 3.1887L4.45487 2.65885C4.19752 2.40098 3.85518 2.259 3.49088 2.259C3.12658 2.259 2.78424 2.40101 2.52693 2.65885L1.72273 3.46479C1.19336 3.9952 1.19336 4.85829 1.72273 5.38873L2.2551 5.92221C1.41483 7.26672 0.964844 8.82279 0.964844 10.4483C0.964844 12.7323 1.8525 14.8797 3.46431 16.4949C5.07641 18.1103 7.21993 19 9.49996 19C11.78 19 13.9235 18.1103 15.5356 16.4949C17.1474 14.8797 18.0351 12.7323 18.0351 10.4483C18.0351 8.16428 17.1474 6.01688 15.5356 4.40173ZM2.51075 4.25121L3.31498 3.44531C3.37836 3.38181 3.4524 3.37231 3.49092 3.37231C3.52944 3.37231 3.60351 3.38178 3.66689 3.44531L4.07027 3.8495C3.86108 4.02292 3.65876 4.20694 3.46435 4.40177C3.27049 4.59603 3.08735 4.79817 2.91476 5.00717L2.51075 4.60234C2.41411 4.50552 2.41411 4.34799 2.51075 4.25121ZM9.49996 17.8867C5.40754 17.8867 2.07812 14.5498 2.07812 10.4483C2.07812 6.34674 5.40754 3.00987 9.49996 3.00987C13.5924 3.00987 16.9218 6.3467 16.9218 10.4483C16.9218 14.5499 13.5924 17.8867 9.49996 17.8867Z" fill="black" fill-opacity="0.8"/>
<path d="M9.50004 4.05347C5.98051 4.05347 3.11719 6.92224 3.11719 10.4485C3.11719 13.9747 5.98051 16.8434 9.50004 16.8434C13.0196 16.8434 15.8829 13.9747 15.8829 10.4485C15.8829 6.92224 13.0196 4.05347 9.50004 4.05347ZM10.0567 15.7007V15.0501C10.0567 14.7426 9.80745 14.4934 9.50004 14.4934C9.19262 14.4934 8.9434 14.7426 8.9434 15.0501V15.7007C6.48097 15.4404 4.51885 13.4733 4.25971 11.0051H4.89847C5.20589 11.0051 5.45512 10.7559 5.45512 10.4485C5.45512 10.141 5.20589 9.89181 4.89847 9.89181H4.25975C4.51885 7.42355 6.48097 5.45654 8.9434 5.19621V5.84685C8.9434 6.15427 9.19262 6.40349 9.50004 6.40349C9.80745 6.40349 10.0567 6.15427 10.0567 5.84685V5.19621C12.5191 5.45654 14.4812 7.42355 14.7404 9.89181H14.1016C13.7942 9.89181 13.545 10.141 13.545 10.4485C13.545 10.7559 13.7942 11.0051 14.1016 11.0051H14.7403C14.4812 13.4733 12.5191 15.4404 10.0567 15.7007Z" fill="black" fill-opacity="0.8"/>
<path d="M10.8732 10.127H10.0879V7.87573C10.0879 7.56832 9.83866 7.31909 9.53125 7.31909C9.22384 7.31909 8.97461 7.56832 8.97461 7.87573V10.6837C8.97461 10.9911 9.22384 11.2403 9.53125 11.2403H10.8732C11.1806 11.2403 11.4298 10.9911 11.4298 10.6837C11.4298 10.3763 11.1806 10.127 10.8732 10.127Z" fill="black" fill-opacity="0.8"/>
</svg>
