<svg width="31" height="31" viewBox="0 0 31 31" fill="none" xmlns="http://www.w3.org/2000/svg">
<path d="M15.5002 30.3739C7.28051 30.3739 0.626465 23.7199 0.626465 15.5002C0.626465 7.28051 7.28051 0.626465 15.5002 0.626465C23.7199 0.626465 30.3739 7.28051 30.3739 15.5002C30.3739 23.7199 23.7199 30.3739 15.5002 30.3739Z" stroke="black" stroke-width="1.5" stroke-miterlimit="10"/>
<path d="M26.9294 9.70703C26.6162 8.68935 25.8334 7.82824 24.8157 7.59339C22.9369 7.04541 15.5001 7.04541 15.5001 7.04541C15.5001 7.04541 8.0632 7.04541 6.18441 7.59339C5.16673 7.90652 4.3839 8.68935 4.07077 9.70703C3.60107 11.5858 3.60107 15.5 3.60107 15.5C3.60107 15.5 3.60107 19.4141 4.07077 21.2929C4.3839 22.3106 5.16673 23.1717 6.18441 23.4065C8.0632 23.8762 15.5001 23.8762 15.5001 23.8762C15.5001 23.8762 22.9369 23.8762 24.8157 23.4065C25.8334 23.0934 26.6162 22.3106 26.9294 21.2929C27.3991 19.4141 27.3991 15.5 27.3991 15.5C27.3991 15.5 27.3991 11.5858 26.9294 9.70703Z" fill="black"/>
<path d="M13.0732 19.0225V11.9771L19.2576 15.4998L13.0732 19.0225Z" fill="white"/>
</svg>
