<svg width="32" height="32" viewBox="0 0 32 32" fill="none" xmlns="http://www.w3.org/2000/svg">
<path d="M15.8737 30.7475C7.65404 30.7475 1 24.0934 1 15.8737C1 7.65404 7.65404 1 15.8737 1C24.0934 1 30.7475 7.65404 30.7475 15.8737C30.7475 24.0934 24.0934 30.7475 15.8737 30.7475Z" fill="black" stroke="black" stroke-width="1.5" stroke-miterlimit="10"/>
<path d="M27.3029 10.0807C26.9898 9.06307 26.2069 8.20196 25.1893 7.96711C23.3105 7.41913 15.8736 7.41913 15.8736 7.41913C15.8736 7.41913 8.43673 7.41913 6.55794 7.96711C5.54027 8.28024 4.75744 9.06307 4.44431 10.0807C3.97461 11.9595 3.97461 15.8737 3.97461 15.8737C3.97461 15.8737 3.97461 19.7878 4.44431 21.6666C4.75744 22.6843 5.54027 23.5454 6.55794 23.7802C8.43673 24.2499 15.8736 24.2499 15.8736 24.2499C15.8736 24.2499 23.3105 24.2499 25.1893 23.7802C26.2069 23.4671 26.9898 22.6843 27.3029 21.6666C27.7726 19.7878 27.7726 15.8737 27.7726 15.8737C27.7726 15.8737 27.7726 11.9595 27.3029 10.0807Z" fill="white"/>
<path d="M13.4473 19.3965V12.351L19.6316 15.8737L13.4473 19.3965Z" fill="black"/>
</svg>
