<svg width="22" height="22" viewBox="0 0 22 22" fill="none" xmlns="http://www.w3.org/2000/svg">
<path fill-rule="evenodd" clip-rule="evenodd" d="M10.9998 1.88766C5.96396 1.88766 1.88766 5.96396 1.88766 10.9998C1.88766 16.0355 5.96396 20.1118 10.9998 20.1118C16.0355 20.1118 20.1118 16.0355 20.1118 10.9998C20.1118 5.96396 16.0355 1.88766 10.9998 1.88766ZM0.919922 10.9998C0.919922 5.42949 5.42949 0.919922 10.9998 0.919922C16.57 0.919922 21.0796 5.42949 21.0796 10.9998C21.0796 16.57 16.57 21.0796 10.9998 21.0796C5.42949 21.0796 0.919922 16.57 0.919922 10.9998Z" fill="black"/>
<path d="M9.53509 16.8076H11.8583V10.949H13.4745L13.626 8.97928H11.8078C11.8078 8.97928 11.8078 8.22171 11.8078 7.86817C11.8078 7.41363 11.9088 7.21161 12.3634 7.21161C12.7169 7.21161 13.626 7.21161 13.626 7.21161V5.19141C13.626 5.19141 12.3129 5.19141 12.0098 5.19141C10.2927 5.19141 9.48458 5.94898 9.48458 7.41363C9.48458 8.67625 9.48458 8.97928 9.48458 8.97928H8.27246V10.949H9.48458V16.8076H9.53509Z" fill="black"/>
</svg>
