<svg width="307" height="50" viewBox="0 0 307 50" fill="none" xmlns="http://www.w3.org/2000/svg">
<path d="M75.332 33.804C75.332 33.804 78.068 36.504 83.792 36.504C89.624 36.504 92.216 33.624 92.216 29.952C92.216 26.604 90.056 24.696 84.584 23.22C80.66 22.14 79.4 21.42 79.4 19.944C79.4 18.216 81.056 17.244 83.756 17.244C87.536 17.244 89.768 19.008 89.768 19.008L91.712 16.092C91.712 16.092 89.336 13.932 83.756 13.932C78.464 13.932 75.512 16.308 75.512 20.088C75.512 23.472 77.924 25.092 83 26.532C87.14 27.72 88.256 28.548 88.256 30.204C88.256 31.932 86.924 33.192 83.72 33.192C79.868 33.192 77.276 31.104 77.276 31.104L75.332 33.804ZM96.2846 36H99.8486V29.34H105.465C110.793 29.34 114.393 26.676 114.393 21.708C114.393 17.028 111.081 14.4 105.681 14.4H96.2846V36ZM110.757 21.852C110.757 24.912 108.741 26.208 105.537 26.208H99.8486V17.568H105.537C108.705 17.568 110.757 19.008 110.757 21.852ZM113.371 36H117.403L118.987 32.724H130.183L131.803 36H135.871L124.927 14.4H124.243L113.371 36ZM128.563 29.448L128.779 29.808H120.391L120.607 29.448L124.495 20.988H124.711L128.563 29.448ZM153.179 31.032C153.179 31.032 151.163 33.084 147.707 33.084C143.099 33.084 139.931 29.664 139.931 25.236C139.931 20.772 143.099 17.316 147.707 17.316C150.911 17.316 153.179 19.404 153.179 19.404L155.231 16.632C155.231 16.632 152.819 13.932 147.635 13.932C140.759 13.932 136.259 18.936 136.259 25.236C136.259 31.464 140.759 36.504 147.635 36.504C152.819 36.504 155.231 33.768 155.231 33.768L153.179 31.032ZM173.228 23.796H162.356V17.568H175.172V14.4H158.792V36H175.172V32.832H162.356V26.82H173.228V23.796ZM195.868 36.504C202.708 36.504 207.064 31.536 207.064 25.236C207.064 18.864 202.708 13.932 195.868 13.932C189.064 13.932 184.708 18.864 184.708 25.236C184.708 31.536 189.064 36.504 195.868 36.504ZM195.868 34.092C190.576 34.092 187.264 30.096 187.264 25.236C187.264 20.34 190.576 16.308 195.868 16.308C201.196 16.308 204.508 20.34 204.508 25.236C204.508 30.096 201.196 34.092 195.868 34.092ZM230.573 14.4H228.053V30.636L212.465 14.4H211.709V36H214.229V19.692L229.817 36H230.573V14.4ZM251.896 36V33.66H239.296V14.4H236.776V36H251.896ZM257.929 14.4H255.409V36H257.929V14.4ZM282.991 14.4H280.471V30.636L264.883 14.4H264.127V36H266.647V19.692L282.235 36H282.991V14.4ZM303.45 24.192H291.714V16.74H305.034V14.4H289.194V36H305.034V33.66H291.714V26.532H303.45V24.192Z" fill="black"/>
<g clip-path="url(#clip0)">
<path d="M24.9945 50C11.2181 50.0083 0.0152688 38.8297 1.55865e-05 25.0611C-0.0152376 11.2369 11.1667 0.0138856 24.9598 1.28789e-05C38.7529 -0.0138598 49.9917 11.1814 50 24.9931C50.0083 38.8047 38.8264 49.9917 24.9945 50ZM24.9279 47.7457C37.4078 47.7818 47.7079 37.5812 47.7398 25.1332C47.7717 12.4646 37.5798 2.27791 24.86 2.26404C12.4993 2.25017 2.27829 12.5298 2.25749 24.9917C2.23669 37.4535 12.4494 47.7096 24.9279 47.7457Z" fill="black"/>
<path d="M31.4774 21.6416C32.6325 22.51 33.6392 23.2259 34.5849 24.0166C34.7499 24.1553 34.7568 24.6284 34.6736 24.8989C32.5424 31.8269 27.9803 36.2967 20.9624 38.078C15.9996 39.3418 11.2669 38.5039 6.88092 35.8583C6.56754 35.6697 6.24583 35.1841 6.24445 34.8345C6.21302 28.6473 8.59205 23.5852 13.3816 19.6481C13.5419 19.541 13.7096 19.4455 13.8835 19.3623C13.9723 20.4277 13.9432 21.4432 14.1609 22.3866C14.4285 23.5394 14.0721 24.319 13.3289 25.1944C11.5442 27.2933 10.6069 29.8057 10.202 32.5261C10.1215 33.0588 10.2796 33.3418 10.7566 33.5569C19.1084 37.2678 29.3017 32.0309 31.1405 23.076C31.2278 22.7042 31.3193 22.3352 31.4774 21.6416Z" fill="black"/>
<path d="M25.9839 37.0831C27.1861 36.1939 28.2802 35.3518 29.4159 34.5722C29.6405 34.4182 30.0468 34.4334 30.3435 34.5C33.2963 35.1259 36.3692 34.8435 39.1585 33.6899C39.7409 33.4554 39.8809 33.135 39.8061 32.5509C38.6025 23.1813 29.1427 17.2687 20.1724 20.2874C19.9658 20.3568 19.7564 20.4151 19.2988 20.5538C19.3571 19.5591 19.3543 18.6657 19.4722 17.7904C19.6718 16.3157 19.7037 16.3199 21.1445 16.0063C31.8841 13.6702 42.5059 21.3529 43.6291 32.3234C44.0243 36.1856 44.2808 35.6279 40.8072 37.1636C36.0926 39.2445 31.2768 39.2098 26.4762 37.337C26.3079 37.2607 26.1436 37.1759 25.9839 37.0831Z" fill="black"/>
<path d="M35.1831 17.6006C33.7591 16.9874 32.4556 16.4561 31.1896 15.8498C30.9497 15.7347 30.8027 15.3352 30.7001 15.0383C29.7294 12.2318 28.0502 9.94422 25.7414 8.08805C25.2478 7.69129 24.933 7.73291 24.4504 8.08805C17.0374 13.5692 16.5826 24.8934 23.545 31.0238C23.771 31.2222 23.9928 31.4247 24.4241 31.8104C23.1179 32.3736 21.978 32.8938 20.8105 33.3364C20.6163 33.4099 20.2281 33.1977 20.0381 33.0159C11.3133 24.4287 13.6775 9.01752 24.5794 3.42821C24.8484 3.28948 25.3116 3.24786 25.557 3.3852C30.805 6.33731 33.9902 10.7766 35.1124 16.703C35.1514 17.0008 35.175 17.3004 35.1831 17.6006Z" fill="black"/>
</g>
<defs>
<clipPath id="clip0">
<rect width="50" height="50" fill="white"/>
</clipPath>
</defs>
</svg>
