<svg width="293" height="52" viewBox="0 0 293 52" fill="none" xmlns="http://www.w3.org/2000/svg">
<path d="M61.332 34.804C61.332 34.804 64.068 37.504 69.792 37.504C75.624 37.504 78.216 34.624 78.216 30.952C78.216 27.604 76.056 25.696 70.584 24.22C66.66 23.14 65.4 22.42 65.4 20.944C65.4 19.216 67.056 18.244 69.756 18.244C73.536 18.244 75.768 20.008 75.768 20.008L77.712 17.092C77.712 17.092 75.336 14.932 69.756 14.932C64.464 14.932 61.512 17.308 61.512 21.088C61.512 24.472 63.924 26.092 69 27.532C73.14 28.72 74.256 29.548 74.256 31.204C74.256 32.932 72.924 34.192 69.72 34.192C65.868 34.192 63.276 32.104 63.276 32.104L61.332 34.804ZM82.2846 37H85.8486V30.34H91.4646C96.7926 30.34 100.393 27.676 100.393 22.708C100.393 18.028 97.0806 15.4 91.6806 15.4H82.2846V37ZM96.7566 22.852C96.7566 25.912 94.7406 27.208 91.5366 27.208H85.8486V18.568H91.5366C94.7046 18.568 96.7566 20.008 96.7566 22.852ZM99.3708 37H103.403L104.987 33.724H116.183L117.803 37H121.871L110.927 15.4H110.243L99.3708 37ZM114.563 30.448L114.779 30.808H106.391L106.607 30.448L110.495 21.988H110.711L114.563 30.448ZM139.179 32.032C139.179 32.032 137.163 34.084 133.707 34.084C129.099 34.084 125.931 30.664 125.931 26.236C125.931 21.772 129.099 18.316 133.707 18.316C136.911 18.316 139.179 20.404 139.179 20.404L141.231 17.632C141.231 17.632 138.819 14.932 133.635 14.932C126.759 14.932 122.259 19.936 122.259 26.236C122.259 32.464 126.759 37.504 133.635 37.504C138.819 37.504 141.231 34.768 141.231 34.768L139.179 32.032ZM159.228 24.796H148.356V18.568H161.172V15.4H144.792V37H161.172V33.832H148.356V27.82H159.228V24.796ZM181.868 37.504C188.708 37.504 193.064 32.536 193.064 26.236C193.064 19.864 188.708 14.932 181.868 14.932C175.064 14.932 170.708 19.864 170.708 26.236C170.708 32.536 175.064 37.504 181.868 37.504ZM181.868 35.092C176.576 35.092 173.264 31.096 173.264 26.236C173.264 21.34 176.576 17.308 181.868 17.308C187.196 17.308 190.508 21.34 190.508 26.236C190.508 31.096 187.196 35.092 181.868 35.092ZM216.573 15.4H214.053V31.636L198.465 15.4H197.709V37H200.229V20.692L215.817 37H216.573V15.4ZM237.896 37V34.66H225.296V15.4H222.776V37H237.896ZM243.929 15.4H241.409V37H243.929V15.4ZM268.991 15.4H266.471V31.636L250.883 15.4H250.127V37H252.647V20.692L268.235 37H268.991V15.4ZM289.45 25.192H277.714V17.74H291.034V15.4H275.194V37H291.034V34.66H277.714V27.532H289.45V25.192Z" fill="black"/>
<g clip-path="url(#clip0)">
<path d="M24.2192 50.9326C22.9419 50.8149 20.9083 50.4451 19.6814 50.1593C18.5889 49.8904 17.5133 49.5206 16.4713 49.0835C15.5805 48.7137 14.7066 48.243 13.8663 47.7556C12.5889 46.9991 11.2948 46.2427 10.0847 45.3686C9.16038 44.6962 8.30323 43.8894 7.49651 43.0657C6.62256 42.158 5.78223 41.1998 5.00912 40.1913C4.32004 39.2835 3.73181 38.2918 3.16038 37.3C2.65618 36.4259 2.2192 35.5182 1.79903 34.6273C1.56374 34.1398 1.37887 33.6187 1.22761 33.0976C0.941892 32.0722 0.689792 31.0469 0.471304 30.0215C0.336851 29.3659 0.303237 28.6935 0.202397 28.0211C-0.0665106 26.1385 -0.100124 24.2558 0.168783 22.3731C0.404077 20.7426 0.605758 19.0953 1.16038 17.532C1.54693 16.4225 2.03433 15.3299 2.53853 14.2541C2.87466 13.5313 3.24441 12.8253 3.66458 12.1529C4.10155 11.4637 4.60576 10.7913 5.09315 10.1358C6.25281 8.58929 7.64777 7.24453 9.10996 6.00062C9.91668 5.31143 10.8074 4.68947 11.6982 4.08433C12.4545 3.58004 13.2444 3.09257 14.0679 2.68914C15.0931 2.20166 16.152 1.83185 17.2108 1.42842C17.7318 1.2267 18.2528 1.02499 18.8074 0.907323C20.0511 0.62156 21.2948 0.318988 22.5553 0.167702C24.2864 -0.0340124 26.0511 -0.084441 27.7822 0.234941C28.1688 0.302179 28.5721 0.26856 28.9419 0.369417C30.1688 0.671989 31.3957 0.974561 32.6226 1.32756C33.3452 1.52928 34.0679 1.76461 34.757 2.06718C35.5805 2.42018 36.3704 2.85723 37.1436 3.31109C37.8494 3.73133 38.9923 4.45414 39.6646 4.94162C40.4209 5.47952 41.1772 6.05105 41.8831 6.65619C42.7066 7.36219 43.4965 8.11862 44.2024 8.94229C44.9083 9.76596 45.5301 10.6737 46.1183 11.5814C46.6057 12.3378 47.0427 13.1447 47.4629 13.9515C47.7486 14.4894 47.9839 15.0442 48.1856 15.6157C48.4545 16.3721 48.7066 17.1285 48.9083 17.9186C49.2108 19.1121 49.5133 20.3224 49.715 21.5495C49.8662 22.474 49.9503 23.4321 49.9671 24.3735C50.0007 25.6846 50.0343 27.0126 49.883 28.3069C49.715 29.7189 49.362 31.1309 49.0259 32.5261C48.8242 33.3498 48.5889 34.1566 48.2528 34.9467C47.8662 35.888 47.5637 36.8798 46.9419 37.7203C46.4377 38.3926 46.0847 39.1491 45.6141 39.8383C44.9587 40.7964 44.2192 41.6873 43.3452 42.4606C43.3116 42.4774 43.278 42.4942 43.2444 42.511C43.0931 42.5614 42.9083 42.4437 42.9083 42.2756C42.9083 42.242 42.9083 42.2252 42.9251 42.1916C43.1772 41.7041 43.4125 40.8973 43.7654 40.4938C44.5553 39.2835 44.9083 38.8129 45.6814 37.7034C45.9503 37.3336 46.1856 36.947 46.4041 36.5436C46.7906 35.8376 46.841 35.5686 47.1604 34.6945C47.3284 34.2239 47.4461 33.9045 47.9503 32.1731C48.5217 30.3913 48.6562 28.475 48.8578 26.6428C49.0427 24.2222 48.9419 24.5248 48.9251 23.4489C48.9251 23.3649 48.8915 23.2304 48.841 23.18C48.8242 23.1632 48.7738 23.1127 48.757 23.0959C48.6057 22.9447 48.2864 22.9951 48.2192 23.2136C48.2192 23.2304 48.2192 23.2472 48.2024 23.264C48.1856 23.6338 48.2192 23.8692 48.2192 24.3903C48.2192 26.004 47.9167 27.6009 47.6646 29.181C47.4965 30.2064 47.2612 31.2654 46.9587 32.274C46.7402 32.9968 46.4377 33.6523 46.1183 34.3415C45.8326 34.9803 45.4293 35.5686 45.0595 36.1738C45.0091 36.241 44.8074 36.3083 44.7402 36.2578C44.6562 36.2074 44.5553 36.0393 44.5721 35.9216C44.6057 35.7031 44.673 35.4678 44.7906 35.2997C45.4629 34.3247 45.8326 33.2153 46.1352 32.1059C46.5049 30.7611 46.673 29.3491 46.9419 27.9707C47.0763 27.2983 47.1772 26.6091 47.2444 25.9199C47.362 24.6256 47.3452 23.3481 46.9755 22.0874C46.6898 21.1124 46.5553 20.087 46.2024 19.1289C45.883 18.322 45.6814 17.6328 45.3788 16.6915C45.2276 16.3889 45.2444 16.3049 45.0595 16.1368C44.9923 16.0023 44.8074 15.9855 44.7066 16.1032C44.6898 16.12 44.673 16.1536 44.673 16.1704C44.6225 16.3217 44.6562 16.5066 44.6057 16.6747C44.5889 16.7587 44.5049 16.8596 44.4209 16.8764C44.3536 16.8932 44.236 16.8092 44.2024 16.7251C43.9671 16.2713 43.7654 15.7838 43.5301 15.3299C43.3452 14.9601 43.1267 14.5903 42.8915 14.2541C42.4545 13.6658 42.0175 13.0774 41.5301 12.5059C40.8578 11.7159 40.236 10.8754 39.4629 10.203C38.4377 9.29529 37.3116 8.47162 36.1856 7.68158C35.4797 7.17729 34.7234 6.75705 33.9503 6.37043C33.278 6.05105 32.5553 5.81571 31.8494 5.59719C30.9083 5.29462 29.9671 4.97524 28.9923 4.79033C28.0007 4.60543 26.9923 4.48776 26.0007 4.48776C24.5889 4.47095 23.715 4.45414 22.32 4.60543C21.4461 4.70628 20.0511 5.0929 19.194 5.36186C18.5217 5.58038 17.8326 5.7989 17.194 6.10148C16.2024 6.57214 15.194 7.04281 14.2696 7.63115C13.1436 8.35396 12.0343 9.11039 11.0595 10.0181C10.1184 10.9258 9.27802 11.9848 8.4713 13.0102C7.93349 13.6826 7.51332 14.439 7.07634 15.1786C6.84105 15.5653 6.68979 16.0191 6.50492 16.4394C5.93349 17.7673 5.47971 19.1457 5.16038 20.5745C4.85786 21.9865 4.74021 23.3985 4.7066 25.2812C4.57214 26.6932 4.94189 28.5086 5.41248 30.2904C5.93349 32.3244 6.74021 34.2575 7.81584 36.0729C8.65617 37.5017 9.68139 38.7961 10.8074 39.9895C11.4461 40.6451 12.1856 41.2166 12.9083 41.7882C13.4293 42.1916 13.9671 42.5614 14.5049 42.9144L14.8747 43.1497C15.5637 43.5868 17.7654 44.7635 18.5553 44.9652L23.5469 46.3604C24.2696 46.5453 25.6646 46.7302 26.9251 46.8815C28.1856 47.0328 29.4461 47.0496 30.7234 46.9487L33.3116 46.747C34.4377 46.6629 35.5301 46.3772 36.5553 45.9065H36.5721C37.194 45.6207 37.799 45.3182 38.4377 45.066C38.6225 44.9988 38.8746 45.0828 39.1099 45.0997C39.0931 45.335 39.1268 45.6039 39.0427 45.8057C38.8915 46.125 38.6226 46.3772 38.9251 46.747C38.9587 46.7806 38.8578 46.9823 38.7738 47.0496C38.3032 47.3858 37.8158 47.7388 37.3116 48.0245C36.6562 48.4111 35.9839 48.7641 35.3116 49.1171C34.9755 49.2852 34.6226 49.4197 34.2528 49.5374C33.3284 49.8231 32.4041 50.1089 31.4797 50.3779C30.9587 50.5291 29.1099 50.9158 28.5721 50.9662L27.0427 51.0502C26.6057 51.067 26.1856 51.067 25.7486 51.0502L24.2192 50.9326ZM27.4125 2.90766C27.4125 2.94128 27.3957 2.9749 27.3957 3.00852C27.0931 3.00852 26.7738 2.9749 26.4713 3.02533C26.32 3.04214 26.1856 3.19342 26.0343 3.27747C26.1184 3.41195 26.1856 3.58004 26.3032 3.66409C26.5049 3.78176 26.7234 3.88261 26.9587 3.91623C28.32 4.16838 29.7654 4.05071 31.0763 4.60543C31.1772 4.65585 31.2948 4.62224 31.4125 4.65585C32.236 4.92481 33.0595 5.19376 33.8662 5.49633C34.2864 5.64762 34.7066 5.83252 35.1099 6.05105C35.5805 6.30319 36.0511 6.58895 36.5049 6.89153C37.1099 7.31176 37.6982 7.76562 38.2864 8.20267C38.7738 8.57248 39.2276 8.99272 39.7318 9.34572C39.7486 9.36253 39.7654 9.36253 39.7654 9.36253C39.9839 9.46339 40.2024 9.22805 40.1352 9.00953C40.1183 8.97591 40.1015 8.92548 40.0847 8.89186C39.9839 8.70696 39.8494 8.53886 39.715 8.38758C38.5889 7.26134 37.4125 6.20233 35.9671 5.49633C35.5637 5.29462 35.1772 5.07609 34.7738 4.87438C34.1856 4.58862 33.6141 4.23562 32.9923 4.06752C31.9839 3.76495 30.9419 3.56323 29.8999 3.34471C29.0931 3.19342 28.2528 3.05895 27.4125 2.90766ZM44.5553 15.2123C44.5889 15.1618 44.5889 15.1114 44.5721 15.061C44.5049 14.8929 44.4545 14.7248 44.3704 14.5903C43.9167 13.8843 43.4629 13.1783 42.9923 12.4723C42.8578 12.2706 42.5049 12.3714 42.5049 12.6236C42.5049 12.6572 42.5049 12.674 42.5217 12.7076C42.7402 13.1279 43.0091 13.5313 43.2612 13.9347C43.5469 14.3718 43.8326 14.792 44.1352 15.2123C44.236 15.3635 44.4545 15.3635 44.5553 15.2123Z" fill="black"/>
<path d="M27.0084 2.89125C26.7731 2.87444 26.5378 2.89125 26.3193 2.92487C26.0504 2.9753 26 3.02573 26.0336 3.27787C26.1176 3.41235 26.1849 3.58044 26.3025 3.66449C26.5042 3.78216 26.7227 3.91663 26.958 3.91663C29.1092 3.96706 31.8991 4.63944 33.8655 5.49673C34.2857 5.68164 34.7059 5.83292 35.1092 6.05145C35.5798 6.30359 36.0504 6.58935 36.5042 6.89193C37.1092 7.31216 37.6975 7.76602 38.2857 8.20307C38.7731 8.57288 39.2269 8.99312 39.7311 9.34612C39.7479 9.36293 39.7647 9.36293 39.7647 9.36293C39.9832 9.46379 40.2017 9.22845 40.1344 9.00993C40.1176 8.97631 40.1008 8.92588 40.084 8.89226C39.9832 8.70736 39.8487 8.53926 39.7143 8.38798C38.5882 7.26174 38.084 6.89193 36.7731 5.86654C36.3193 5.53035 35.4958 5.05968 35.0588 4.82435C34.437 4.50497 33.8823 4.32006 33.2605 4.13516C32.2521 3.83258 30.958 3.54682 29.9159 3.3283C29.1933 3.17701 28.4538 3.04254 27.7143 2.90806C27.5126 2.87444 27.2941 2.84082 27.0924 2.84082L27.0084 2.89125Z" fill="white"/>
<path d="M21.2418 23.9122C21.3819 22.7531 21.4753 21.7594 21.6457 20.7782C21.6759 20.6067 22.0037 20.411 22.2263 20.3601C27.929 19.0566 32.8961 20.4468 36.977 24.6413C39.8658 27.6059 41.1929 31.2574 41.1167 35.3956C41.1115 35.6911 40.9022 36.1123 40.6585 36.2543C36.3476 38.7731 31.8487 39.1502 27.1619 37.3857C27.0223 37.3167 26.8877 37.2378 26.7593 37.1496C27.468 36.6576 28.1894 36.2682 28.7606 35.7351C29.458 35.0825 30.1469 35.0174 31.0589 35.1845C33.2469 35.587 35.3814 35.2295 37.446 34.4152C37.8508 34.2565 37.9847 34.0316 37.9422 33.6109C37.1601 26.2662 29.3811 21.243 22.3804 23.5693C22.0853 23.6582 21.7904 23.743 21.2418 23.9122Z" fill="black"/>
<path d="M34.2519 21.5271C33.1446 21.0443 32.114 20.6181 31.1103 20.1376C30.9119 20.0425 30.7584 19.7519 30.685 19.5172C29.9291 17.1975 28.4898 15.1601 26.5564 13.6728C26.1572 13.3596 25.8767 13.3909 25.4988 13.679C19.4378 18.3025 19.1291 27.3112 24.8637 32.3732C24.9957 32.4899 25.121 32.613 25.4029 32.8774C24.6843 33.238 24.0611 33.6004 23.4018 33.8711C22.2906 34.3264 22.2806 34.3024 21.4793 33.4203C15.5066 26.8441 16.5826 16.3075 23.7949 11.0943C26.334 9.25913 25.8406 9.30457 28.3176 11.1167C31.677 13.5778 33.599 16.9634 34.2303 21.08C34.245 21.2286 34.2522 21.3778 34.2519 21.5271V21.5271Z" fill="black"/>
<path d="M16.9202 22.9483C17.0673 24.1927 17.2227 25.3197 17.3107 26.4507C17.3272 26.6651 17.1074 26.9292 16.9415 27.1208C15.3726 28.9328 14.4527 31.0316 14.0886 33.397C14.0109 33.9027 14.1672 34.1063 14.6104 34.3008C21.4363 37.2789 29.5334 33.0277 31.0035 25.6796C31.0508 25.4413 31.1027 25.2043 31.1979 24.7467C32.1194 25.4339 32.9435 26.022 33.7246 26.6608C33.8545 26.7671 33.863 27.1246 33.8128 27.3309C31.3381 36.9043 19.6135 41.4678 11.302 36.0908C11.0963 35.9585 10.8801 35.651 10.8769 35.4238C10.8189 30.5584 12.6338 26.5371 16.3216 23.36C16.5139 23.2126 16.7137 23.0751 16.9202 22.9483V22.9483Z" fill="black"/>
</g>
<defs>
<clipPath id="clip0">
<rect width="50" height="51.0338" fill="white"/>
</clipPath>
</defs>
</svg>
