<svg width="22" height="22" viewBox="0 0 22 22" fill="none" xmlns="http://www.w3.org/2000/svg">
<path fill-rule="evenodd" clip-rule="evenodd" d="M10.9998 1.88766C5.96396 1.88766 1.88766 5.96396 1.88766 10.9998C1.88766 16.0355 5.96396 20.1118 10.9998 20.1118C16.0355 20.1118 20.1118 16.0355 20.1118 10.9998C20.1118 5.96396 16.0355 1.88766 10.9998 1.88766ZM0.919922 10.9998C0.919922 5.42949 5.42949 0.919922 10.9998 0.919922C16.57 0.919922 21.0796 5.42949 21.0796 10.9998C21.0796 16.57 16.57 21.0796 10.9998 21.0796C5.42949 21.0796 0.919922 16.57 0.919922 10.9998Z" fill="black"/>
<path d="M18.3737 7.26209C18.1717 6.60553 17.6667 6.04997 17.0101 5.89846C15.798 5.54492 11 5.54492 11 5.54492C11 5.54492 6.20203 5.54492 4.98991 5.89846C4.33334 6.10048 3.82829 6.60553 3.62627 7.26209C3.32324 8.47421 3.32324 10.9995 3.32324 10.9995C3.32324 10.9995 3.32324 13.5247 3.62627 14.7368C3.82829 15.3934 4.33334 15.949 4.98991 16.1005C6.20203 16.4035 11 16.4035 11 16.4035C11 16.4035 15.798 16.4035 17.0101 16.1005C17.6667 15.8985 18.1717 15.3934 18.3737 14.7368C18.6768 13.5247 18.6768 10.9995 18.6768 10.9995C18.6768 10.9995 18.6768 8.47421 18.3737 7.26209Z" fill="black"/>
<path d="M9.43457 13.272V8.72656L13.4245 10.9993L9.43457 13.272Z" fill="white"/>
</svg>
